<svg viewBox="0 0 511.99969 511" xmlns="http://www.w3.org/2000/svg"><path d="m72.457031 497.703125-57.660156-57.660156c-9.707031-9.707031-9.707031-25.59375 0-35.300781 9.707031-9.707032 25.59375-9.707032 35.300781 0l57.660156 57.660156c9.707032 9.707031 9.707032 25.59375 0 35.300781-9.707031 9.710937-25.59375 9.710937-35.300781 0zm0 0" fill="#d7f3ff"/><path d="m479.183594 158.023438-30.734375 282.90625c-3.828125 35.230468-46.746094 50.34375-71.804688 25.285156l-102.828125-102.828125zm0 0" fill="#acabb1"/><path d="m341.535156 431.105469-67.71875-67.71875 205.367188-205.363281-11.246094 103.507812zm0 0" fill="#898890"/><path d="m439.457031 462.878906c-14.765625 18.269532-43.882812 22.265625-62.8125 3.335938l-102.828125-102.828125 33.074219-33.074219zm0 0" fill="#73737a"/><path d="m341.535156 431.105469-67.71875-67.71875 33.074219-33.074219 62.894531 62.894531zm0 0" fill="#626268"/><path d="m354.476562 33.320312-282.90625 30.730469c-35.230468 3.828125-50.34375 46.746094-25.285156 71.808594l102.828125 102.824219zm0 0" fill="#acabb1"/><path d="m81.394531 170.964844 67.71875 67.71875 205.363281-205.363282-103.507812 11.242188zm0 0" fill="#898890"/><path d="m49.625 73.042969c-18.273438 14.765625-22.269531 43.886719-3.339844 62.816406l102.828125 102.824219 33.074219-33.074219zm0 0" fill="#73737a"/><path d="m81.394531 170.964844 67.71875 67.71875 33.074219-33.074219-62.894531-62.894531zm0 0" fill="#626268"/><path d="m223.417969 372.738281-83.65625-83.652343c-16.796875-16.796876-16.796875-44.027344 0-60.824219l184.867187-184.867188c24.410156-24.410156 58.097656-37.21875 92.5625-35.183593l50.25 2.960937c18.25 1.078125 32.808594 15.636719 33.886719 33.886719l2.960937 50.25c2.03125 34.464844-10.773437 68.152344-35.183593 92.5625l-184.867188 184.867187c-16.796875 16.796875-44.027343 16.796875-60.820312 0zm0 0" fill="#c6c5ca"/><path d="m253.757812 343.328125-84.585937-84.585937 156.625-156.625c12.042969-12.042969 31.574219-12.042969 43.617187 0l40.96875 40.96875c12.042969 12.046874 12.042969 31.574218 0 43.617187zm0 0" fill="#acabb1"/><path d="m155.761719 212.257812-16 16.003907c-16.796875 16.796875-16.796875 44.027343 0 60.824219l83.65625 83.652343c16.792969 16.796875 44.023437 16.796875 60.820312 0l16.003907-16zm0 0" fill="#898890"/><path d="m155.757812 356.742188c-9.097656-9.097657-9.097656-23.984376 0-33.082032l113.457032-113.457031c9.097656-9.097656 23.984375-9.097656 33.085937 0 9.097657 9.097656 9.097657 23.988281 0 33.085937l-113.457031 113.457032c-9.101562 9.097656-23.988281 9.097656-33.085938-.003906zm0 0" fill="#eaeaea"/><path d="m148.464844 457.136719-93.101563-93.101563c-9.707031-9.707031-9.707031-25.59375 0-35.300781 9.710938-9.710937 25.597657-9.710937 35.304688 0l93.101562 93.101563c9.707031 9.707031 9.707031 25.59375 0 35.300781-9.710937 9.707031-25.59375 9.707031-35.304687 0zm0 0" fill="#d7f3ff"/><g fill="#bdebff"><path d="m91.890625 365.257812c9.710937-9.707031 25.59375-9.707031 35.304687 0l-36.527343-36.523437c-9.707031-9.710937-25.59375-9.710937-35.304688 0-9.707031 9.707031-9.707031 25.589844 0 35.300781l36.527344 36.527344c-9.707031-9.707031-9.707031-25.59375 0-35.304688zm0 0"/><path d="m51.324219 441.269531c9.707031-9.707031 25.59375-9.707031 35.300781 0l-36.527344-36.527343c-9.707031-9.707032-25.59375-9.707032-35.300781 0-9.707031 9.707031-9.707031 25.59375 0 35.300781l36.527344 36.527343c-9.707031-9.707031-9.707031-25.59375 0-35.300781zm0 0"/><path d="m472.945312 53.328125c-.238281-7.503906-6.269531-13.535156-13.773437-13.773437l-43.746094-1.398438c-4.695312-.277344-9.371093-.183594-13.988281.257812-9.1875.882813-13.207031 12.066407-6.679688 18.589844l60.738282 60.738282c6.527344 6.527343 17.707031 2.507812 18.589844-6.679688.445312-4.617188.535156-9.292969.257812-13.988281zm0 0"/></g><path d="m55.402344 399.441406c-6.113282-6.113281-14.265625-9.480468-22.957032-9.480468-8.6875 0-16.839843 3.367187-22.953124 9.476562-12.65625 12.65625-12.65625 33.253906 0 45.910156l57.660156 57.660156c6.332031 6.328126 14.640625 9.492188 22.953125 9.492188s16.628906-3.164062 22.953125-9.492188c6.113281-6.113281 9.480468-14.265624 9.480468-22.953124 0-8.691407-3.367187-16.84375-9.480468-22.957032zm47.050781 92.960938c-6.808594 6.808594-17.886719 6.808594-24.691406 0l-57.664063-57.660156c-6.808594-6.808594-6.808594-17.886719 0-24.695313 10.136719-10.136719 21.417969-3.28125 24.695313 0l57.660156 57.660156c8.980469 8.976563 3.28125 21.417969 0 24.695313zm0 0"/><path d="m95.96875 323.429688c-6.109375-6.113282-27.488281-18.417969-45.90625 0-18.417969 18.417968-6.113281 39.796874 0 45.90625l56.203125 56.207031c2.929687 2.925781 7.679687 2.925781 10.605469 0 2.929687-2.929688 2.929687-7.679688 0-10.609375l-56.203125-56.203125c-3.277344-3.277344-8.972657-15.257813 0-24.695313 8.976562-9.4375 21.417969-3.277344 24.695312 0l93.101563 93.101563c3.167968 3.464843 8.046875 15.910156 0 24.695312-9.09375 9.933594-21.417969 3.277344-24.695313 0l-15.519531-15.515625c-2.929688-2.929687-7.675781-2.929687-10.605469 0-2.929687 2.929688-2.929687 7.675782 0 10.605469l15.519531 15.519531c6.109376 6.109375 29.332032 18.183594 45.90625 0 18.019532-19.773437 6.113282-39.796875 0-45.910156zm0 0"/><path d="m450.191406 123.046875c7.605469 7.382813 17.179688 5.050781 19.25 4.308594 6.78125-2.4375 11.421875-8.402344 12.109375-15.574219.480469-4.988281-1.109375-58.6875-1.109375-58.6875-.363281-11.429688-9.601562-20.667969-21.03125-21.035156 0 0-53.707031-1.585938-58.691406-1.105469-7.171875.6875-13.136719 5.328125-15.570312 12.109375-2.4375 6.777344-.785157 14.152344 4.308593 19.25zm-50.929687-74.917969c.222656-.613281.945312-2.0625 2.890625-2.246094 2.636718-.253906 56.777344 1.167969 56.777344 1.167969 3.542968.113281 6.40625 2.976563 6.519531 6.519531 0 0 1.578125 52.523438 1.171875 56.777344-.1875 1.945313-1.636719 2.671875-2.25 2.890625-.761719.273438-2.238282.535157-3.570313-.800781l-60.738281-60.734375c-1.332031-1.332031-1.074219-2.8125-.800781-3.574219zm0 0"/><path d="m455.90625 441.738281 28.179688-259.417969c19.566406-24.605468 29.5625-55.75 27.691406-87.453124l-2.960938-50.253907c-1.300781-22.03125-18.898437-39.628906-40.929687-40.929687l-50.253907-2.960938c-31.71875-1.871094-62.851562 8.125-87.453124 27.691406l-259.417969 28.183594c-19.195313 2.085938-35.101563 14.691406-41.515625 32.902344-6.414063 18.214844-1.917969 38.007812 11.734375 51.660156l88.121093 88.117188c-6.125 8.519531-9.4375 18.699218-9.4375 29.394531 0 13.492187 5.253907 26.175781 14.792969 35.714844l19.980469 19.984375-3.984375 3.984375c-12.046875 12.046875-12.046875 31.644531 0 43.691406 6.023437 6.023437 25.242187 17.328125 43.691406 0l3.988281-3.984375 19.980469 19.980469c9.539063 9.539062 22.222657 14.792969 35.714844 14.792969 10.695313 0 20.875-3.3125 29.394531-9.433594l88.117188 88.117187c9.542968 9.539063 22.078125 14.609375 34.984375 14.609375 5.558593 0 45.269531 0 49.582031-44.390625zm-39.15625-426.042969 50.253906 2.964844c14.445313.851563 25.984375 12.390625 26.835938 26.839844l2.964844 50.25c1.902343 32.296875-10.125 63.941406-33 86.820312l-163.5625 163.5625-19.339844-19.339843 134.785156-134.785157c7.238281-7.242187 11.226562-16.871093 11.226562-27.109374 0-10.242188-3.988281-19.871094-11.226562-27.113282l-40.972656-40.96875c-7.238282-7.242187-16.867188-11.226562-27.109375-11.226562-10.242188 0-19.871094 3.984375-27.109375 11.226562l-116.089844 116.085938c-2.925781 2.929687-2.925781 7.679687 0 10.609375 2.929688 2.925781 7.679688 2.925781 10.609375 0l116.085937-116.089844c4.40625-4.40625 10.269532-6.835937 16.503907-6.835937s12.097656 2.429687 16.503906 6.835937l40.96875 40.96875c4.410156 4.410156 6.839844 10.269531 6.839844 16.507813 0 6.230468-2.429688 12.09375-6.839844 16.503906l-134.785156 134.78125-15.140625-15.140625 52.449218-52.453125c12.046876-12.042969 12.046876-31.644532 0-43.691406-12.046874-12.042969-31.644531-12.042969-43.691406 0l-52.449218 52.449218-45.089844-45.085937 163.558594-163.5625c22.878906-22.878907 54.519531-34.925781 86.820312-33.003907zm-344.367188 55.8125 239.546876-26.023437-139.628907 139.628906-110.695312-110.695312c3.320312-1.488281 6.933593-2.492188 10.777343-2.910157zm-28.988281 22.976563c1.445313-4.109375 3.535157-7.777344 6.144531-10.917969l112.152344 112.15625-22.464844 22.464844-87.636718-87.636719c-9.679688-9.675781-12.742188-23.160156-8.195313-36.066406zm101.671875 189.296875c-13.847656-13.84375-13.847656-36.371094 0-50.214844l10.695313-10.699218 45.089843 45.089843-35.808593 35.804688zm15.992188 67.660156c-6.195313-6.199218-6.195313-16.28125 0-22.480468l113.457031-113.457032c8.464844-8.261718 19.382813-3.097656 22.480469 0 6.195312 6.199219 6.195312 16.28125 0 22.480469l-113.457032 113.457031c-6.199218 6.195313-16.28125 6.195313-22.480468 0zm67.660156 15.996094-19.980469-19.984375 35.808594-35.804687 45.085937 45.089843-10.695312 10.695313c-13.84375 13.847656-36.375 13.847656-50.21875.003906zm189.296875 101.667969c-12.910156 4.550781-26.390625 1.484375-36.066406-8.195313l-87.636719-87.632812 22.464844-22.46875 67.003906 67c4.855469 3.878906 9.144531 1.464844 10.609375 0 2.925781-2.929688 2.925781-7.675782 0-10.605469l-67.003906-67 139.628906-139.632813-26.023437 239.550782c-.417969 3.839844-1.421876 7.453125-2.910157 10.773437l-22.109375-22.105469c-2.929687-2.929687-7.675781-2.929687-10.605468 0-2.929688 2.929688-2.929688 7.675782 0 10.605469l23.566406 23.570313c-3.140625 2.605468-6.808594 4.695312-10.917969 6.140625zm0 0"/></svg>