<svg height="480pt" viewBox="0 -48 480 480" width="480pt" xmlns="http://www.w3.org/2000/svg"><path d="m40 336-32-8v-272l32-8 16 120v48zm0 0" fill="#394d5c"/><path d="m440 48 32 8v272l-32 8-16-120v-48zm0 0" fill="#394d5c"/><g fill="#aabece"><path d="m120 224-64-8v-48l64-8zm0 0"/><path d="m120 40-112 16v-32l112-16zm0 0"/><path d="m120 376-112-16v-32l112 16zm0 0"/><path d="m360 160 64 8v48l-64 8zm0 0"/><path d="m360 344 112-16v32l-112 16zm0 0"/><path d="m360 8 112 16v32l-112-16zm0 0"/></g><path d="m368 192c0 70.695312-57.308594 128-128 128s-128-57.304688-128-128c0-70.691406 57.308594-128 128-128s128 57.308594 128 128zm0 0" fill="#394d5c"/><path d="m320 192c0 44.183594-35.816406 80-80 80s-80-35.816406-80-80 35.816406-80 80-80 80 35.816406 80 80zm0 0" fill="#36afad"/><path d="m240 248v-16c4.539062.007812 9.046875-.761719 13.328125-2.269531l5.34375 15.078125c-5.996094 2.117187-12.3125 3.199218-18.671875 3.191406zm0 0" fill="#fff"/><path d="m270.976562 238.664062-8.863281-13.328124c14.703125-9.75 21.28125-27.988282 16.1875-44.882813s-20.65625-28.453125-38.300781-28.453125v-16c24.703125-.007812 46.492188 16.175781 53.628906 39.824219 7.136719 23.652343-2.066406 49.183593-22.652344 62.839843zm0 0" fill="#fff"/><path d="m240 104c-48.601562 0-88 39.398438-88 88s39.398438 88 88 88 88-39.398438 88-88c-.058594-48.578125-39.421875-87.941406-88-88zm0 160c-39.765625 0-72-32.234375-72-72 0-39.761719 32.234375-72 72-72s72 32.238281 72 72c-.042969 39.746094-32.253906 71.957031-72 72zm0 0"/><path d="m240 232v16c6.359375.003906 12.675781-1.078125 18.671875-3.199219l-5.34375-15.078125c-4.28125 1.511719-8.789063 2.28125-13.328125 2.277344zm0 0"/><path d="m240 136v16c17.644531 0 33.207031 11.558594 38.300781 28.453125s-1.484375 35.132813-16.1875 44.882813l8.863281 13.328124c20.585938-13.65625 29.789063-39.1875 22.652344-62.839843-7.136718-23.648438-28.925781-39.832031-53.628906-39.824219zm0 0"/><path d="m473.136719 16.082031-112-15.9999998c-2.296875-.3320312-4.625.3515628-6.378907 1.8749998-1.75 1.519531-2.757812 3.722657-2.757812 6.042969v32c0 3.980469 2.925781 7.355469 6.863281 7.921875l71.710938 10.246094-13.453125 100.914062-46.824219-5.855469c-17.128906-57.675781-70.132813-97.226562-130.296875-97.226562s-113.167969 39.550781-130.296875 97.226562l-46.824219 5.847657-13.453125-100.90625 71.710938-10.246094c3.9375-.566406 6.863281-3.941406 6.863281-7.921875v-32c0-2.320312-1.007812-4.523438-2.757812-6.042969-1.753907-1.523437-4.082032-2.207031-6.378907-1.8749998l-112 15.9999998c-3.9375.5625-6.863281 3.9375-6.863281 7.917969v336c0 3.980469 2.925781 7.355469 6.863281 7.921875l112 16c.375.054687.757813.082031 1.136719.078125 4.417969 0 8-3.582031 8-8v-32c0-3.980469-2.925781-7.355469-6.863281-7.917969l-71.710938-10.25 13.453125-100.910156 46.824219 5.847656c17.128906 57.671875 70.132813 97.226563 130.296875 97.226563s113.167969-39.554688 130.296875-97.226563l46.824219-5.855469 13.453125 100.910157-71.710938 10.257812c-3.9375.5625-6.863281 3.9375-6.863281 7.917969v32c0 4.417969 3.582031 8 8 8 .378906.003906.761719-.023438 1.136719-.078125l112-16c3.9375-.566406 6.863281-3.941406 6.863281-7.921875v-336c0-3.980469-2.925781-7.355469-6.863281-7.917969zm-105.136719 1.144531 96 13.710938v15.839844l-96-13.710938zm-352 13.710938 96-13.710938v15.839844l-96 13.710938zm96 335.839844-96-13.710938v-15.839844l96 13.710938zm-96-45.71875v-258.113282l17.601562-2.511718 14.398438 108.09375v46.945312l-14.398438 108.097656zm48-112.121094v-33.871094l41.976562-5.25c-2.636718 14.671875-2.636718 29.695313 0 44.367188zm176 103.0625c-66.273438 0-120-53.726562-120-120s53.726562-120 120-120 120 53.726562 120 120c-.074219 66.246094-53.757812 119.925781-120 120zm134.023438-142.183594 41.976562 5.25v33.871094l-41.976562 5.246094c2.636718-14.671875 2.636718-29.695313 0-44.367188zm57.976562 45.65625v-46.945312l14.398438-108.09375 17.601562 2.511718v258.113282l-17.601562 2.511718zm32 137.601563-96 13.703125v-15.839844l96-13.710938zm0 0"/></svg>