<?xml version="1.0" encoding="iso-8859-1"?>
<!-- Generator: Adobe Illustrator 19.0.0, SVG Export Plug-In . SVG Version: 6.00 Build 0)  -->
<svg version="1.1" id="Layer_1" xmlns="http://www.w3.org/2000/svg" xmlns:xlink="http://www.w3.org/1999/xlink" x="0px" y="0px"
	 viewBox="0 0 512 512" style="enable-background:new 0 0 512 512;" xml:space="preserve">
<polygon style="fill:#4A8EC6;" points="344.164,190.694 344.164,321.306 496.327,278.76 496.327,236.964 "/>
<polygon style="fill:#77AAD4;" points="15.673,236.964 15.673,278.76 167.836,321.306 167.836,190.694 "/>
<path style="fill:#1D71B8;" d="M146.286,256c0,30.297,12.28,57.725,32.135,77.579h98.477L256,146.286
	C195.406,146.286,146.286,195.406,146.286,256z"/>
<rect y="73.143" style="fill:#4A8EC6;" width="31.347" height="365.714"/>
<rect x="480.653" y="73.143" style="fill:#1D71B8;" width="31.347" height="365.714"/>
<path style="fill:#092339;" d="M256,146.286v187.294h77.579c19.855-19.854,32.135-47.283,32.135-77.579
	C365.714,195.406,316.594,146.286,256,146.286z"/>
<path style="fill:#4A8EC6;" d="M222.751,289.249l-44.331,44.331c19.854,19.855,47.283,32.135,77.579,32.135l20.898-76.466H222.751z"
	/>
<path style="fill:#1D71B8;" d="M289.249,289.249H256v76.466c30.297,0,57.725-12.28,77.579-32.135L289.249,289.249z"/>
<path style="fill:#FFFFFF;" d="M208.98,256c0,25.969,21.052,47.02,47.02,47.02L276.898,256L256,208.98
	C230.031,208.98,208.98,230.031,208.98,256z"/>
<path style="fill:#FAC15C;" d="M256,208.98v94.041c25.969,0,47.02-21.052,47.02-47.02S281.969,208.98,256,208.98z"/>
<g>
</g>
<g>
</g>
<g>
</g>
<g>
</g>
<g>
</g>
<g>
</g>
<g>
</g>
<g>
</g>
<g>
</g>
<g>
</g>
<g>
</g>
<g>
</g>
<g>
</g>
<g>
</g>
<g>
</g>
</svg>
