<svg height="480pt" viewBox="0 0 480.00012 480" width="480pt" xmlns="http://www.w3.org/2000/svg"><path d="m288 120h48l-57.871094-96.457031c-5.785156-9.644531-16.210937-15.546875-27.457031-15.542969h-21.34375c-11.246094-.003906-21.671875 5.898438-27.457031 15.542969l-57.871094 96.457031zm0 0" fill="#79bd9a"/><path d="m144 120h192v136h-192zm0 0" fill="#79bd9a"/><path d="m384 288 16 10.183594v-178.183594c0-17.671875-14.328125-32-32-32s-32 14.328125-32 32v100zm0 0" fill="#79bd9a"/><path d="m96 288 48-68v-100c0-17.671875-14.328125-32-32-32s-32 14.328125-32 32v178.183594zm0 0" fill="#79bd9a"/><path d="m336 144h64v56h-64zm0 0" fill="#a8dba8"/><path d="m80 144h64v56h-64zm0 0" fill="#a8dba8"/><path d="m250.679688 8h-21.351563c-11.246094-.003906-21.671875 5.898438-27.457031 15.542969l-9.871094 16.457031h96l-9.871094-16.457031c-5.785156-9.644531-16.203125-15.542969-27.449218-15.542969zm0 0" fill="#a8dba8"/><path d="m384 288-96-136v208h16c8.835938 0 16 7.164062 16 16v16h135.816406c8.9375 0 16.183594-7.246094 16.183594-16.183594v-22.929687c.003906-5.535157-2.824219-10.683594-7.496094-13.65625zm0 0" fill="#cff09e"/><path d="m160 376c0-8.835938 7.164062-16 16-16h16v-208l-96 136-80.503906 51.199219c-4.679688 2.976562-7.507813 8.144531-7.496094 13.6875v22.929687c0 8.9375 7.246094 16.183594 16.183594 16.183594h135.816406zm0 0" fill="#cff09e"/><path d="m144 360h-136v15.816406c0 8.9375 7.246094 16.183594 16.183594 16.183594h135.816406v-16c0-8.835938 7.164062-16 16-16h16v-208l-32 45.335938v146.664062c0 8.835938-7.164062 16-16 16zm0 0" fill="#a8dba8"/><path d="m320 344v-146.664062l-32-45.335938v208h16c8.835938 0 16 7.164062 16 16v16h135.816406c8.9375 0 16.183594-7.246094 16.183594-16.183594v-15.816406h-136c-8.835938 0-16-7.164062-16-16zm0 0" fill="#a8dba8"/><path d="m176 360h128c8.835938 0 16 7.164062 16 16v48h-160v-48c0-8.835938 7.164062-16 16-16zm0 0" fill="#a8dba8"/><path d="m208 424h64v24.449219c0 4.167969-3.382812 7.550781-7.550781 7.550781h-48.890625c-2.003906.003906-3.925782-.792969-5.34375-2.210938-1.417969-1.414062-2.214844-3.335937-2.214844-5.339843zm0 0" fill="#79bd9a"/><path d="m152.449219 448h-28.5625c-2.445313-.003906-4.734375-1.199219-6.144531-3.199219l-37.742188-52.800781h80v48.449219c0 4.167969-3.382812 7.550781-7.550781 7.550781zm0 0" fill="#79bd9a"/><path d="m327.558594 448h28.554687c2.445313-.007812 4.738281-1.199219 6.152344-3.199219l37.734375-52.800781h-80v48.449219c.003906 4.171875 3.386719 7.550781 7.558594 7.550781zm0 0" fill="#79bd9a"/><path d="m288 360v-235.121094c0-3.179687-.941406-6.292968-2.703125-8.941406l-24.496094-36.738281c-2.984375-4.492188-8.015625-7.191407-13.410156-7.199219h-14.757813c-5.394531.007812-10.429687 2.707031-13.417968 7.199219l-24.503906 36.800781c-1.753907 2.628906-2.699219 5.71875-2.710938 8.878906v235.121094zm0 0" fill="#cff09e"/><path d="m232 136h16c4.417969 0 8 3.582031 8 8v16c0 4.417969-3.582031 8-8 8h-16c-4.417969 0-8-3.582031-8-8v-16c0-4.417969 3.582031-8 8-8zm0 0" fill="#79bd9a"/><path d="m192 208h96v152h-96zm0 0" fill="#cff09e"/><g fill="#3b8686"><path d="m468.800781 332.480469-62.503906-39.777344c1.066406-1.339844 1.664063-2.992187 1.703125-4.703125v-168c.0625-18.125-12.113281-34.011719-29.632812-38.664062-17.519532-4.652344-35.972657 3.101562-44.910157 18.871093l-48.472656-80.800781c-7.261719-12.015625-20.269531-19.375-34.3125-19.40625h-21.34375c-14.046875.0351562-27.054687 7.398438-34.3125 19.425781l-48.472656 80.796875c-8.9375-15.765625-27.382813-23.519531-44.902344-18.871094-17.515625 4.644532-29.695313 20.523438-29.640625 38.648438v168c.035156 1.710938.636719 3.367188 1.703125 4.703125l-62.503906 39.785156c-6.988281 4.421875-11.214844 12.121094-11.199219 20.390625v22.9375c.0195312 13.351563 10.839844 24.171875 24.191406 24.183594h51.695313l35.3125 49.480469c2.929687 4.09375 7.65625 6.523437 12.6875 6.519531h28.5625c8.585937-.007812 15.542969-6.964844 15.550781-15.550781v-8.449219h32v16.449219c.007812 8.585937 6.964844 15.542969 15.550781 15.550781h16.449219v8c0 4.417969 3.582031 8 8 8s8-3.582031 8-8v-8h16.449219c8.585937-.007812 15.542969-6.964844 15.550781-15.550781v-16.449219h32v8.449219c.007812 8.585937 6.964844 15.542969 15.550781 15.550781h28.5625c5.019531-.003906 9.730469-2.429688 12.65625-6.511719l35.34375-49.488281h51.703125c13.351563-.011719 24.171875-10.832031 24.183594-24.183594v-22.9375c.019531-8.273437-4.210938-15.976562-11.199219-20.398437zm-79.199219-50.402344-45.601562-64.621094v-9.457031h48v75.609375zm-189.601562 69.921875v-40h32v40zm-112-160v-40h16v40zm32-40h16v40h-16zm32-24h32v21.457031l-32 45.335938zm48 88h32v32h-8c-4.417969 0-8 3.582031-8 8s3.582031 8 8 8h8v32h-32zm48 48h8c4.417969 0 8-3.582031 8-8s-3.582031-8-8-8h-8v-32h32v80h-32zm32-64h-80v-75.121094c.003906-1.601562.480469-3.167968 1.367188-4.503906l24.496093-36.800781c1.515625-2.246094 4.050781-3.585938 6.761719-3.574219h14.75c2.71875-.003906 5.253906 1.355469 6.761719 3.617188l24.496093 36.800781c.882813 1.320312 1.359376 2.871093 1.367188 4.460937zm-32 112h32v40h-32zm48-184h32v66.792969l-32-45.335938zm96 24v40h-16v-40zm-32 40h-16v-40h16zm8-96c13.253906 0 24 10.746094 24 24v16h-48v-16c0-13.253906 10.746094-24 24-24zm-117.328125-80c8.425781.027344 16.230469 4.445312 20.59375 11.65625l2.605469 4.34375h-67.742188l2.605469-4.34375c4.363281-7.210938 12.167969-11.628906 20.59375-11.65625zm-54.144531 32h86.945312l38.398438 64h-29.597656c-.105469-.160156-.175782-.335938-.289063-.496094l-24.496094-36.800781c-4.488281-6.710937-12.039062-10.730469-20.113281-10.703125h-14.75c-8.066406-.003906-15.601562 4.027344-20.074219 10.742188l-24.496093 36.800781c-.109376.160156-.183594.335937-.277344.496093h-29.640625zm-84.527344 48c13.253906 0 24 10.746094 24 24v16h-48v-16c0-13.253906 10.746094-24 24-24zm-24 112h48v9.457031l-45.601562 64.640625-2.398438 1.511719zm-72 167.816406v-22.9375c-.003906-2.796875 1.429688-5.402344 3.792969-6.902344l80.503906-51.199218c.875-.5625 1.636719-1.289063 2.238281-2.136719l81.464844-115.425781v174.785156h-8c-13.253906 0-24 10.746094-24 24v8h-127.808594c-4.519531 0-8.1875-3.664062-8.191406-8.183594zm136 64.183594-27.75.183594-28.707031-40.183594h56.457031zm64 8.449219v-16.449219h16v16.296875zm48-.449219-16 .144531v-16.144531h16zm8-32h-24v-24c0-4.417969-3.582031-8-8-8s-8 3.582031-8 8v24h-64v-40c0-4.417969 3.582031-8 8-8h128c4.417969 0 8 3.582031 8 8v40zm84.113281 24h-28.113281v-40h56.511719zm107.886719-64.183594c-.003906 4.519532-3.664062 8.179688-8.183594 8.183594h-127.816406v-8c0-13.253906-10.746094-24-24-24h-8v-174.785156l81.464844 115.402344c.605468.847656 1.363281 1.570312 2.238281 2.136718l80.496094 51.199219c2.371093 1.503906 3.808593 4.117187 3.800781 6.925781zm0 0"/><path d="m344.113281 296-16.113281.113281v-40.113281c0-4.417969-3.582031-8-8-8s-8 3.582031-8 8v40.113281c.007812 8.769531 7.117188 15.878907 15.886719 15.886719l16.113281-.113281v24.113281c0 4.417969 3.582031 8 8 8s8-3.582031 8-8v-24.113281c-.007812-8.769531-7.117188-15.878907-15.886719-15.886719zm0 0"/><path d="m128 344c4.417969 0 8-3.582031 8-8l-.113281-24h16.226562c8.769531-.007812 15.878907-7.117188 15.886719-15.886719v-40.113281c0-4.417969-3.582031-8-8-8s-8 3.582031-8 8l.113281 40h-16.226562c-8.769531.007812-15.878907 7.117188-15.886719 15.886719v24.113281c0 4.417969 3.582031 8 8 8zm0 0"/><path d="m112 360c0-4.417969-3.582031-8-8-8h-48c-4.417969 0-8 3.582031-8 8s3.582031 8 8 8h48c4.417969 0 8-3.582031 8-8zm0 0"/><path d="m424 352h-48c-4.417969 0-8 3.582031-8 8s3.582031 8 8 8h48c4.417969 0 8-3.582031 8-8s-3.582031-8-8-8zm0 0"/><path d="m248 128h-16c-8.835938 0-16 7.164062-16 16v16c0 8.835938 7.164062 16 16 16h16c8.835938 0 16-7.164062 16-16v-16c0-8.835938-7.164062-16-16-16zm-16 32v-16h16v16zm0 0"/></g></svg>