<?xml version="1.0" encoding="iso-8859-1"?>
<!-- Generator: Adobe Illustrator 19.0.0, SVG Export Plug-In . SVG Version: 6.00 Build 0)  -->
<svg version="1.1" id="Capa_1" xmlns="http://www.w3.org/2000/svg" xmlns:xlink="http://www.w3.org/1999/xlink" x="0px" y="0px"
	 viewBox="0 0 512 512" style="enable-background:new 0 0 512 512;" xml:space="preserve">
<polygon style="fill:#5A5A5A;" points="511.701,250.008 511.701,361.577 270.982,361.577 256,331.612 241.018,361.577 
	0.299,361.577 0.299,250.008 219.144,0 292.857,0 "/>
<g>
	<polygon style="fill:#444444;" points="511.701,250.008 511.701,361.577 270.982,361.577 256,331.612 256,0 292.857,0 	"/>
	<rect x="151.124" y="210.753" style="fill:#444444;" width="29.965" height="44.947"/>
</g>
<path style="fill:#00C0F1;" d="M256,90.894c-24.872,0-44.947,20.076-44.947,44.947v74.912h89.895v-74.912
	C300.947,110.969,280.872,90.894,256,90.894z"/>
<rect x="241.019" y="270.683" style="fill:#5A5A5A;" width="29.965" height="90.894"/>
<rect x="166.106" y="210.753" style="fill:#292929;" width="14.982" height="44.947"/>
<rect x="256.001" y="270.683" style="fill:#444444;" width="14.982" height="90.894"/>
<path style="fill:#0095FF;" d="M300.947,135.841v74.912H256V90.894C280.872,90.894,300.947,110.969,300.947,135.841z"/>
<path style="fill:#C6E2E7;" d="M211.053,285.666v105.876h-89.895V285.666c0-24.872,20.076-44.947,44.947-44.947
	S211.053,260.794,211.053,285.666z"/>
<path style="fill:#8EBAC5;" d="M211.053,285.666v105.876h-44.947V240.718C190.977,240.718,211.053,260.794,211.053,285.666z"/>
<path style="fill:#FDBF00;" d="M166.105,376.559c-24.872,0-44.947,20.076-44.947,44.947c0,5.093,0.9,10.187,3.596,17.379
	L166.105,512l42.55-75.511c1.498-4.795,2.398-9.889,2.398-14.982C211.053,396.635,190.977,376.559,166.105,376.559z"/>
<path style="fill:#FF9F00;" d="M211.053,421.507c0,5.093-0.9,10.187-2.398,14.982L166.105,512V376.559
	C190.977,376.559,211.053,396.635,211.053,421.507z"/>
<rect x="330.913" y="210.753" style="fill:#444444;" width="29.965" height="44.947"/>
<rect x="345.896" y="210.753" style="fill:#292929;" width="14.982" height="44.947"/>
<path style="fill:#C6E2E7;" d="M390.842,285.666v105.876h-89.895V285.666c0-24.872,20.076-44.947,44.947-44.947
	C370.767,240.718,390.842,260.794,390.842,285.666z"/>
<path style="fill:#8EBAC5;" d="M390.842,285.666v105.876h-44.947V240.718C370.767,240.718,390.842,260.794,390.842,285.666z"/>
<path style="fill:#FDBF00;" d="M345.895,376.559c-24.872,0-44.947,20.076-44.947,44.947c0,5.093,0.9,10.187,3.596,17.379
	L345.895,512l42.55-75.511c1.498-4.795,2.398-9.889,2.398-14.982C390.842,396.635,370.767,376.559,345.895,376.559z"/>
<path style="fill:#FF9F00;" d="M390.842,421.507c0,5.093-0.9,10.187-2.398,14.982L345.895,512V376.559
	C370.767,376.559,390.842,396.635,390.842,421.507z"/>
<g>
</g>
<g>
</g>
<g>
</g>
<g>
</g>
<g>
</g>
<g>
</g>
<g>
</g>
<g>
</g>
<g>
</g>
<g>
</g>
<g>
</g>
<g>
</g>
<g>
</g>
<g>
</g>
<g>
</g>
</svg>
