<svg height="479pt" viewBox="0 -32 479.99658 479" width="479pt" xmlns="http://www.w3.org/2000/svg"><path d="m448 168.5-96 32-112-80-112 80-96-32-24 24 204.6875 204.6875c7.242188 7.242188 17.066406 11.3125 27.3125 11.3125 10.242188 0 20.066406-4.070312 27.308594-11.3125l204.691406-204.6875zm0 0" fill="#394d5c"/><path d="m296 280.5c0 30.925781-25.074219 40-56 40-30.929688 0-56-9.074219-56-40 0-30.929688 25.070312-72 56-72 30.925781 0 56 41.070312 56 72zm0 0" fill="#36afad"/><path d="m240 296.5v-16c5.359375.136719 10.714844-.382812 15.949219-1.554688-1.25-10.632812-5.976563-20.558593-13.445313-28.230468l10.992188-11.625c11.09375 11.027344 17.691406 25.785156 18.503906 41.410156.09375 2.589844-.363281 5.167969-1.347656 7.566406-.664063 1.335938-1.695313 2.457032-2.964844 3.238282-8.585938 4.222656-18.160156 6.019531-27.6875 5.195312zm15.894531-14.402344" fill="#fff"/><path d="m56 176.5 15.871094-21.167969c4.925781-6.5625 13.300781-9.535156 21.261718-7.554687 10.558594 2.644531 17.179688 13.113281 15.050782 23.785156l-4.183594 20.9375zm0 0" fill="#aabece"/><path d="m424 176.5-15.875-21.167969c-4.925781-6.5625-13.300781-9.535156-21.261719-7.554687-10.558593 2.644531-17.179687 13.113281-15.050781 23.785156l4.1875 20.9375zm0 0" fill="#aabece"/><path d="m232 120.5h16v64h-16zm0 0" fill="#aabece"/><g fill="#fdbd40"><path d="m48 152.5c-3.238281-.003906-6.152344-1.953125-7.390625-4.941406-1.238281-2.988282-.554687-6.429688 1.734375-8.714844l80-80c3.136719-3.035156 8.128906-2.988281 11.214844.097656 3.085937 3.085938 3.128906 8.074219.09375 11.210938l-80 80c-1.496094 1.503906-3.53125 2.34375-5.652344 2.347656zm0 0"/><path d="m152 48.5c-3.238281-.003906-6.152344-1.953125-7.390625-4.941406-1.238281-2.988282-.554687-6.429688 1.734375-8.714844l16-16c3.136719-3.035156 8.128906-2.988281 11.214844.097656 3.085937 3.085938 3.128906 8.074219.09375 11.210938l-16 16c-1.496094 1.503906-3.53125 2.34375-5.652344 2.347656zm0 0"/><path d="m432 152.5c-2.125-.003906-4.15625-.84375-5.65625-2.347656l-80-80c-3.035156-3.136719-2.988281-8.125.097656-11.210938 3.085938-3.085937 8.074219-3.132812 11.210938-.097656l80 80c2.289062 2.285156 2.972656 5.726562 1.734375 8.714844-1.238281 2.988281-4.152344 4.9375-7.386719 4.941406zm0 0"/><path d="m328 48.5c-2.125-.003906-4.15625-.84375-5.65625-2.347656l-16-16c-3.035156-3.136719-2.988281-8.125.097656-11.210938 3.085938-3.085937 8.074219-3.132812 11.210938-.097656l16 16c2.289062 2.285156 2.972656 5.726562 1.734375 8.714844-1.238281 2.988281-4.152344 4.9375-7.386719 4.941406zm0 0"/><path d="m240 96.5c-4.421875 0-8-3.582031-8-8v-32c0-4.421875 3.578125-8 8-8 4.417969 0 8 3.578125 8 8v32c0 4.417969-3.582031 8-8 8zm0 0"/><path d="m240 32.5c-4.421875 0-8-3.582031-8-8v-16c0-4.421875 3.578125-8 8-8 4.417969 0 8 3.578125 8 8v16c0 4.417969-3.582031 8-8 8zm0 0"/><path d="m136 176.5c-2.953125-.003906-5.660156-1.628906-7.050781-4.230469-1.390625-2.601562-1.234375-5.757812.402343-8.210937l32-48c2.449219-3.675782 7.417969-4.667969 11.09375-2.214844 3.675782 2.449219 4.667969 7.417969 2.21875 11.09375l-32 48c-1.488281 2.226562-3.988281 3.5625-6.664062 3.5625zm0 0"/><path d="m344 176.5c-2.679688 0-5.179688-1.335938-6.664062-3.5625l-32-48c-2.453126-3.675781-1.460938-8.644531 2.214843-11.09375 3.675781-2.453125 8.644531-1.460938 11.09375 2.214844l32 48c1.640625 2.453125 1.792969 5.609375.402344 8.210937-1.390625 2.601563-4.097656 4.226563-7.046875 4.230469zm0 0"/></g><path d="m453.652344 162.84375c-2.132813-2.15625-5.308594-2.90625-8.183594-1.929688l-18.535156 6.175782-12.40625-16.550782c-7.96875-10.574218-22.183594-14.238281-34.269532-8.835937-12.085937 5.40625-18.832031 18.449219-16.257812 31.433594l2.796875 14.007812-13.429687 4.480469-108.6875-77.597656c-2.78125-1.984375-6.515626-1.984375-9.296876 0l-108.6875 77.597656-13.433593-4.480469 2.800781-14.007812c2.613281-13.003907-4.132812-26.089844-16.242188-31.503907-12.113281-5.414062-26.359374-1.714843-34.308593 8.90625l-12.449219 16.550782-18.535156-6.175782c-2.875-.957031-6.042969-.210937-8.183594 1.929688l-24 24c-3.125 3.121094-3.125 8.1875 0 11.308594l204.6875 204.691406c18.207031 18.207031 47.726562 18.207031 65.933594 0l204.6875-204.691406c3.125-3.121094 3.125-8.1875 0-11.308594zm-64.855469-7.296875c.988281-.246094 2-.375 3.015625-.375 3.902344 0 7.574219 1.835937 9.914062 4.957031l9.214844 12.289063-28.878906 9.601562-2.398438-12.042969c-1.296874-6.476562 2.726563-12.828124 9.132813-14.429687zm-310.519531 4.582031c3.472656-4.628906 9.691406-6.238281 14.976562-3.875 5.285156 2.363282 8.226563 8.070313 7.089844 13.75l-2.402344 12.039063-28.878906-9.601563zm183.375 231.402344c-12.121094 11.558594-31.1875 11.558594-43.308594 0l-199.035156-199.03125 14.851562-14.839844 91.308594 30.398438c2.433594.824218 5.117188.421875 7.203125-1.082032l99.328125-70.933593v48.457031h16v-48.457031l99.351562 70.960937c2.082032 1.503906 4.765626 1.90625 7.199219 1.078125l91.3125-30.398437 14.824219 14.816406zm0 0"/><path d="m240 200.5c-35.457031 0-64 43.765625-64 80 0 21.894531 11.101562 48 64 48 52.894531 0 64-26.105469 64-48 0-36.234375-28.546875-80-64-80zm0 112c-43.027344 0-48-18.265625-48-32 0-27.945312 23.277344-64 48-64 24.71875 0 48 36.054688 48 64 0 13.734375-4.976562 32-48 32zm0 0"/><path d="m242.503906 250.714844c7.46875 7.671875 12.195313 17.597656 13.445313 28.230468-5.234375 1.171876-10.589844 1.691407-15.949219 1.554688v16c9.527344.824219 19.101562-.972656 27.6875-5.195312 1.269531-.78125 2.300781-1.902344 2.964844-3.238282.984375-2.398437 1.441406-4.976562 1.347656-7.566406-.8125-15.625-7.410156-30.382812-18.503906-41.410156zm0 0"/><path d="m122.34375 58.84375-80 80c-2.082031 2.007812-2.914062 4.980469-2.183594 7.777344.734375 2.796875 2.917969 4.984375 5.714844 5.714844 2.796875.730468 5.769531-.101563 7.777344-2.183594l80-80c3.035156-3.136719 2.992187-8.125-.09375-11.210938-3.085938-3.085937-8.078125-3.132812-11.214844-.097656zm0 0"/><path d="m157.652344 46.152344 16-16c3.035156-3.136719 2.992187-8.125-.09375-11.210938-3.085938-3.085937-8.078125-3.132812-11.214844-.097656l-16 16c-2.082031 2.007812-2.914062 4.980469-2.183594 7.777344.734375 2.796875 2.917969 4.984375 5.714844 5.714844 2.796875.730468 5.769531-.101563 7.777344-2.183594zm0 0"/><path d="m432 152.5c3.234375-.003906 6.148438-1.953125 7.386719-4.941406 1.238281-2.988282.554687-6.429688-1.734375-8.714844l-80-80c-3.136719-3.035156-8.125-2.988281-11.210938.097656-3.085937 3.085938-3.132812 8.074219-.097656 11.210938l80 80c1.5 1.503906 3.53125 2.34375 5.65625 2.347656zm0 0"/><path d="m317.652344 18.84375c-3.136719-3.035156-8.125-2.988281-11.210938.097656-3.085937 3.085938-3.132812 8.074219-.097656 11.210938l16 16c3.136719 3.035156 8.128906 2.992187 11.214844-.09375 3.085937-3.085938 3.128906-8.078125.09375-11.214844zm0 0"/><path d="m232 88.5c0 4.417969 3.578125 8 8 8 4.417969 0 8-3.582031 8-8v-32c0-4.421875-3.582031-8-8-8-4.421875 0-8 3.578125-8 8zm0 0"/><path d="m240 32.5c4.417969 0 8-3.582031 8-8v-16c0-4.421875-3.582031-8-8-8-4.421875 0-8 3.578125-8 8v16c0 4.417969 3.578125 8 8 8zm0 0"/><path d="m131.558594 175.152344c3.675781 2.453125 8.644531 1.460937 11.09375-2.214844l32-48c2.453125-3.675781 1.460937-8.644531-2.214844-11.09375-3.675781-2.453125-8.644531-1.460938-11.09375 2.214844l-32 48c-2.453125 3.675781-1.460938 8.644531 2.214844 11.09375zm0 0"/><path d="m307.558594 113.84375c-3.675782 2.449219-4.667969 7.417969-2.214844 11.09375l32 48c2.449219 3.675781 7.417969 4.667969 11.09375 2.214844 3.675781-2.449219 4.667969-7.417969 2.214844-11.09375l-32-48c-2.449219-3.675782-7.417969-4.667969-11.09375-2.214844zm0 0"/></svg>