<svg height="480pt" viewBox="0 0 480 480.25031" width="480pt" xmlns="http://www.w3.org/2000/svg"><path d="m440.125 168.097656h-112v-56c-.042969-39.746094-32.253906-71.957031-72-72h-32c-39.746094.042969-71.957031 32.253906-72 72v56h-112c-22.082031.027344-39.972656 17.921875-40 40v16c0 4.417969 3.582031 8 8 8h106.664062l29.742188 71.382813c6.191406 14.929687 20.769531 24.648437 36.929688 24.617187h117.328124c16.160157.03125 30.738282-9.6875 36.929688-24.617187l29.742188-71.382813h106.664062c4.417969 0 8-3.582031 8-8v-16c-.027344-22.078125-17.917969-39.972656-40-40zm-27.71875 48-21.335938-32h20.800782l21.335937 32zm-40 0-21.335938-32h20.800782l21.335937 32zm-40 0-21.335938-32h20.800782l21.335937 32zm-40 0-21.335938-32h20.800782l21.335937 32zm-125.335938 0 21.335938-32h20.800781l-21.335937 32zm-40 0 21.335938-32h20.800781l-21.335937 32zm-40 0 21.335938-32h20.800781l-21.335937 32zm-40 0 21.335938-32h20.800781l-21.335937 32zm181.335938-32h23.4375l21.335938 32h-66.109376zm-60.28125-72c.035156-30.914062 25.085938-55.964844 56-56h32c30.914062.035156 55.964844 25.085938 56 56v56h-144zm-152 96c0-13.253906 10.746094-24 24-24h9.054688l-21.335938 32h-11.71875zm304.800781 89.234375c-3.714843 8.953125-12.464843 14.785157-22.160156 14.765625h-117.304687c-9.6875.011719-18.425782-5.820312-22.136719-14.765625l-27.199219-65.234375h216zm143.199219-81.234375h-11.71875l-21.335938-32h9.054688c13.253906 0 24 10.746094 24 24zm0 0"/><path d="m281.261719 80.210938c-2.101563-.300782-4.238281.246093-5.9375 1.519531-1.699219 1.273437-2.820313 3.167969-3.117188 5.273437l-8 56c-.628906 4.371094 2.40625 8.425782 6.78125 9.054688.378907.046875.761719.070312 1.144531.070312 3.976563-.003906 7.347657-2.925781 7.914063-6.863281l8-56c.625-4.375-2.410156-8.429687-6.785156-9.054687zm0 0"/><path d="m240.125 248.097656c-4.417969 0-8 3.582032-8 8v32c0 4.417969 3.582031 8 8 8s8-3.582031 8-8v-32c0-4.417968-3.582031-8-8-8zm0 0"/><path d="m183.886719 254.164062c-1.132813-4.21875-5.433594-6.75-9.667969-5.691406s-6.839844 5.316406-5.855469 9.570313l8 32c.894531 3.554687 4.085938 6.050781 7.753907 6.054687.65625.003906 1.3125-.078125 1.953124-.238281 4.28125-1.074219 6.882813-5.414063 5.816407-9.695313zm0 0"/><path d="m306.070312 248.347656c-4.285156-1.074218-8.632812 1.527344-9.707031 5.816406l-8 32c-1.066406 4.28125 1.535157 8.621094 5.816407 9.695313.640624.160156 1.296874.242187 1.953124.238281 3.667969-.003906 6.863282-2.5 7.753907-6.054687l8-32c1.066406-4.285157-1.535157-8.621094-5.816407-9.695313zm0 0"/><path d="m155.101562 344.675781c-4.101562-1.644531-8.757812.351563-10.402343 4.453125l-32 80c-1.636719 4.105469.363281 8.761719 4.464843 10.402344 4.105469 1.636719 8.761719-.359375 10.402344-4.464844l32-80c1.632813-4.101562-.363281-8.753906-4.464844-10.390625zm0 0"/><path d="m193.445312 368.210938c-4.359374-.726563-8.480468 2.214843-9.207031 6.574218l-8 48c-.730469 4.355469 2.210938 8.480469 6.566407 9.210938.441406.066406.882812.101562 1.328124.101562 3.90625-.003906 7.238282-2.832031 7.878907-6.6875l8-48c.722656-4.351562-2.214844-8.46875-6.566407-9.199218zm0 0"/><path d="m240.125 344.097656c-4.417969 0-8 3.582032-8 8v120c0 4.417969 3.582031 8 8 8s8-3.582031 8-8v-120c0-4.417968-3.582031-8-8-8zm0 0"/><path d="m286.523438 384.257812c-4.332032.867188-7.136719 5.085938-6.269532 9.417969l8 40c.757813 3.722657 4.03125 6.394531 7.832032 6.398438.535156.003906 1.070312-.046875 1.597656-.152344 4.332031-.867187 7.140625-5.082031 6.273437-9.414063l-8-40c-.878906-4.332031-5.101562-7.128906-9.433593-6.25zm0 0"/><path d="m335.390625 348.746094c-1.851563-4.011719-6.605469-5.761719-10.617187-3.910156-4.011719 1.851562-5.761719 6.601562-3.914063 10.613281l48 104c1.851563 4.011719 6.605469 5.765625 10.617187 3.914062 4.011719-1.851562 5.765626-6.605469 3.914063-10.617187zm0 0"/><path d="m2.46875 29.753906c3.125 3.125 8.1875 3.125 11.3125 0l2.34375-2.34375 2.34375 2.34375c3.140625 3.03125 8.128906 2.988282 11.214844-.097656 3.085937-3.085938 3.128906-8.074219.097656-11.214844l-2.34375-2.34375 2.34375-2.34375c2.078125-2.007812 2.914062-4.984375 2.179688-7.78125-.730469-2.796875-2.914063-4.980468-5.710938-5.710937-2.796875-.734375-5.773438.101562-7.78125 2.179687l-2.34375 2.34375-2.34375-2.34375c-3.140625-3.03125-8.128906-2.988281-11.214844.097656-3.085937 3.085938-3.128906 8.078126-.097656 11.214844l2.34375 2.34375-2.34375 2.34375c-3.121094 3.125-3.121094 8.1875 0 11.3125zm0 0"/><path d="m24.125 96.097656c0 13.253906 10.746094 24 24 24s24-10.746094 24-24-10.746094-24-24-24-24 10.746094-24 24zm24-8c4.417969 0 8 3.582032 8 8 0 4.417969-3.582031 8-8 8s-8-3.582031-8-8c0-4.417968 3.582031-8 8-8zm0 0"/><path d="m392.125 56.097656h9.136719c2.914062 11.203125 11.664062 19.949219 22.863281 22.863282v9.136718c0 4.417969 3.582031 8 8 8s8-3.582031 8-8v-9.136718c11.199219-2.914063 19.949219-11.660157 22.863281-22.863282h9.136719c4.417969 0 8-3.582031 8-8 0-4.417968-3.582031-8-8-8h-9.136719c-2.925781-11.195312-11.667969-19.9375-22.863281-22.863281v-9.136719c0-4.417968-3.582031-7.9999998-8-7.9999998s-8 3.5820318-8 7.9999998v9.136719c-11.195312 2.925781-19.9375 11.667969-22.863281 22.863281h-9.136719c-4.417969 0-8 3.582032-8 8 0 4.417969 3.582031 8 8 8zm40-24c8.835938 0 16 7.164063 16 16 0 8.835938-7.164062 16-16 16s-16-7.164062-16-16c0-8.835937 7.164062-16 16-16zm0 0"/><path d="m57.101562 347.816406-6.777343 6.769532c-9.140625-4.183594-19.914063-2.386719-27.199219 4.542968-7.144531 7.191406-8.988281 18.101563-4.601562 27.242188l-6.703126 6.695312c-2.078124 2.007813-2.914062 4.984375-2.179687 7.78125.730469 2.796875 2.914063 4.980469 5.710937 5.710938 2.796876.734375 5.773438-.101563 7.78125-2.179688l6.6875-6.679687c9.140626 4.457031 20.101563 2.59375 27.257813-4.632813 7.152344-7.191406 9.011719-18.101562 4.648437-27.257812l6.703126-6.703125c2.078124-2.007813 2.914062-4.980469 2.179687-7.777344-.730469-2.800781-2.914063-4.984375-5.710937-5.714844-2.796876-.734375-5.773438.101563-7.78125 2.179688zm-11.320312 33.9375c-3.160156 3.035156-8.152344 3.035156-11.3125 0-3.125-3.125-3.125-8.1875 0-11.3125s8.1875-3.125 11.3125 0 3.125 8.1875 0 11.3125zm0 0"/><path d="m408.125 304.097656c0-4.417968-3.582031-8-8-8s-8 3.582032-8 8c-4.417969 0-8 3.582032-8 8 0 4.417969 3.582031 8 8 8 0 4.417969 3.582031 8 8 8s8-3.582031 8-8c4.417969 0 8-3.582031 8-8 0-4.417968-3.582031-8-8-8zm0 0"/><path d="m456.125 384.097656c-13.253906 0-24 10.746094-24 24s10.746094 24 24 24 24-10.746094 24-24-10.746094-24-24-24zm0 32c-4.417969 0-8-3.582031-8-8 0-4.417968 3.582031-8 8-8s8 3.582032 8 8c0 4.417969-3.582031 8-8 8zm0 0"/><path d="m224.125 48.25h32c35.347656 0 64 28.652344 64 64v64h-160v-64c0-35.347656 28.652344-64 64-64zm0 0" fill="#506f86"/><path d="m40.125 176.25h400c17.671875 0 32 14.328125 32 32v16h-464v-16c0-17.671875 14.328125-32 32-32zm0 0" fill="#fbb040"/><path d="m298.789062 320.25h-117.328124c-12.917969.003906-24.574219-7.761719-29.542969-19.6875l-31.792969-76.3125h240l-31.792969 76.3125c-4.96875 11.925781-16.625 19.691406-29.542969 19.6875zm0 0" fill="#506f86"/><g fill="#2f3c4f"><path d="m64.125 96.25c0 8.835938-7.164062 16-16 16s-16-7.164062-16-16 7.164062-16 16-16 16 7.164062 16 16zm0 0"/><path d="m456.125 48.25c0 13.253906-10.746094 24-24 24s-24-10.746094-24-24 10.746094-24 24-24 24 10.746094 24 24zm0 0"/><path d="m56.125 376.25c0 8.835938-7.164062 16-16 16s-16-7.164062-16-16 7.164062-16 16-16 16 7.164062 16 16zm0 0"/><path d="m472.125 408.25c0 8.835938-7.164062 16-16 16s-16-7.164062-16-16 7.164062-16 16-16 16 7.164062 16 16zm0 0"/></g><path d="m440.125 168.25h-112v-56c-.042969-39.746094-32.253906-71.957031-72-72h-32c-39.746094.042969-71.957031 32.253906-72 72v56h-112c-22.082031.027344-39.972656 17.917969-40 40v16c0 4.417969 3.582031 8 8 8h106.664062l29.742188 71.390625c6.191406 14.925781 20.773438 24.640625 36.929688 24.609375h117.328124c16.15625.03125 30.738282-9.683594 36.929688-24.609375l29.742188-71.390625h106.664062c4.417969 0 8-3.582031 8-8v-16c-.027344-22.082031-17.917969-39.972656-40-40zm-27.71875 48-21.335938-32h20.800782l21.335937 32zm-40 0-21.335938-32h20.800782l21.335937 32zm-40 0-21.335938-32h20.800782l21.335937 32zm-40 0-21.335938-32h20.800782l21.335937 32zm-125.335938 0 21.335938-32h20.800781l-21.335937 32zm-40 0 21.335938-32h20.800781l-21.335937 32zm-40 0 21.335938-32h20.800781l-21.335937 32zm-40 0 21.335938-32h20.800781l-21.335937 32zm181.335938-32h23.4375l21.335938 32h-66.109376zm-60.28125-72c.035156-30.914062 25.085938-55.964844 56-56h32c30.914062.035156 55.964844 25.085938 56 56v56h-144zm-152 96c0-13.253906 10.746094-24 24-24h9.054688l-21.335938 32h-11.71875zm304.800781 89.230469c-3.714843 8.957031-12.464843 14.789062-22.160156 14.769531h-117.304687c-9.695313.019531-18.445313-5.8125-22.160157-14.769531l-27.199219-65.230469h216zm143.199219-81.230469h-11.71875l-21.335938-32h9.054688c13.253906 0 24 10.746094 24 24zm0 0"/><path d="m281.261719 80.332031c-4.375-.628906-8.429688 2.40625-9.054688 6.78125l-8 56c-.628906 4.375 2.410157 8.429688 6.785157 9.054688s8.429687-2.414063 9.054687-6.789063l8-56c.621094-4.371094-2.414063-8.421875-6.785156-9.046875zm0 0"/><path d="m240.125 248.25c-4.417969 0-8 3.582031-8 8v32c0 4.417969 3.582031 8 8 8s8-3.582031 8-8v-32c0-4.417969-3.582031-8-8-8zm0 0"/><path d="m183.886719 254.3125c-.640625-2.828125-2.757813-5.09375-5.542969-5.914062-2.785156-.820313-5.792969-.070313-7.867188 1.960937-2.070312 2.03125-2.878906 5.027344-2.113281 7.828125l8 32c.890625 3.558594 4.085938 6.058594 7.753907 6.0625.65625 0 1.3125-.082031 1.953124-.238281 4.28125-1.074219 6.882813-5.414063 5.816407-9.699219zm0 0"/><path d="m306.070312 248.492188c-4.289062-1.074219-8.636718 1.535156-9.707031 5.820312l-8 32c-1.066406 4.285156 1.535157 8.625 5.816407 9.699219.640624.15625 1.296874.238281 1.953124.238281 3.667969-.003906 6.863282-2.503906 7.753907-6.0625l8-32c1.066406-4.285156-1.535157-8.625-5.816407-9.695312zm0 0"/><path d="m155.101562 344.816406c-4.105468-1.640625-8.761718.359375-10.402343 4.464844l-32 80c-1.640625 4.101562.355469 8.761719 4.457031 10.402344.949219.375 1.957031.566406 2.976562.566406 3.273438 0 6.21875-1.992188 7.433594-5.03125l32-80c1.640625-4.105469-.359375-8.761719-4.464844-10.402344zm0 0"/><path d="m193.445312 368.363281c-4.359374-.726562-8.480468 2.214844-9.207031 6.574219l-8 48c-.722656 4.355469 2.214844 8.46875 6.566407 9.199219.4375.078125.882812.117187 1.328124.113281 3.90625-.003906 7.238282-2.832031 7.878907-6.6875l8-48c.722656-4.351562-2.214844-8.46875-6.566407-9.199219zm0 0"/><path d="m240.125 344.25c-4.417969 0-8 3.582031-8 8v120c0 4.417969 3.582031 8 8 8s8-3.582031 8-8v-120c0-4.417969-3.582031-8-8-8zm0 0"/><path d="m286.523438 384.402344c-4.3125.882812-7.101563 5.089844-6.238282 9.40625l8 40c.761719 3.722656 4.03125 6.398437 7.832032 6.402344.539062.003906 1.074218-.050782 1.601562-.160157 4.328125-.867187 7.132812-5.078125 6.269531-9.410156l-8-40c-.421875-2.082031-1.660156-3.914063-3.433593-5.082031-1.777344-1.171875-3.945313-1.589844-6.03125-1.15625zm0 0"/><path d="m335.390625 348.898438c-1.851563-4.011719-6.605469-5.761719-10.617187-3.914063-4.011719 1.851563-5.761719 6.605469-3.914063 10.617187l48 104c1.851563 4.011719 6.605469 5.765626 10.617187 3.914063 4.011719-1.851563 5.765626-6.605469 3.914063-10.617187zm0 0"/><path d="m2.46875 29.90625c3.125 3.125 8.1875 3.125 11.3125 0l2.34375-2.34375 2.34375 2.34375c3.15625 2.90625 8.039062 2.808594 11.074219-.222656 3.035156-3.03125 3.140625-7.914063.238281-11.074219l-2.34375-2.34375 2.34375-2.34375c2.078125-2.007813 2.914062-4.984375 2.179688-7.78125-.730469-2.796875-2.914063-4.980469-5.710938-5.710937-2.796875-.734376-5.773438.101562-7.78125 2.179687l-2.34375 2.328125-2.34375-2.328125c-3.152344-2.90625-8.039062-2.808594-11.074219.222656-3.035156 3.03125-3.140625 7.917969-.238281 11.074219l2.34375 2.34375-2.34375 2.359375c-3.113281 3.125-3.113281 8.175781 0 11.296875zm0 0"/><path d="m24.125 96.25c0 13.253906 10.746094 24 24 24s24-10.746094 24-24-10.746094-24-24-24-24 10.746094-24 24zm24-8c4.417969 0 8 3.582031 8 8s-3.582031 8-8 8-8-3.582031-8-8 3.582031-8 8-8zm0 0"/><path d="m392.125 56.25h9.136719c2.925781 11.195312 11.667969 19.9375 22.863281 22.863281v9.136719c0 4.417969 3.582031 8 8 8s8-3.582031 8-8v-9.136719c11.195312-2.925781 19.9375-11.667969 22.863281-22.863281h9.136719c4.417969 0 8-3.582031 8-8s-3.582031-8-8-8h-9.136719c-2.914062-11.199219-11.664062-19.945312-22.863281-22.863281v-9.136719c0-4.417969-3.582031-8-8-8s-8 3.582031-8 8v9.136719c-11.199219 2.917969-19.949219 11.664062-22.863281 22.863281h-9.136719c-4.417969 0-8 3.582031-8 8s3.582031 8 8 8zm40-24c8.835938 0 16 7.164062 16 16s-7.164062 16-16 16-16-7.164062-16-16 7.164062-16 16-16zm0 0"/><path d="m57.101562 347.96875-6.777343 6.769531c-9.140625-4.191406-19.914063-2.390625-27.199219 4.542969-7.144531 7.191406-8.988281 18.101562-4.601562 27.242188l-6.703126 6.703124c-2.078124 2.007813-2.914062 4.984376-2.179687 7.78125.730469 2.796876 2.914063 4.980469 5.710937 5.710938 2.796876.734375 5.773438-.101562 7.78125-2.179688l6.703126-6.695312c9.144531 4.425781 20.085937 2.582031 27.273437-4.597656 7.183594-7.179688 9.039063-18.121094 4.617187-27.269532l6.703126-6.695312c3.125-3.128906 3.121093-8.195312-.007813-11.320312-3.128906-3.121094-8.195313-3.117188-11.320313.007812zm-11.320312 33.945312c-3.148438 2.957032-8.074219 2.878907-11.132812-.171874-3.054688-3.054688-3.132813-7.980469-.179688-11.132813 3.125-3.121094 8.1875-3.121094 11.3125 0 3.117188 3.125 3.117188 8.183594 0 11.304687zm0 0"/><path d="m408.125 304.25c0-4.417969-3.582031-8-8-8s-8 3.582031-8 8c-4.417969 0-8 3.582031-8 8s3.582031 8 8 8c0 4.417969 3.582031 8 8 8s8-3.582031 8-8c4.417969 0 8-3.582031 8-8s-3.582031-8-8-8zm0 0"/><path d="m456.125 384.25c-13.253906 0-24 10.746094-24 24s10.746094 24 24 24 24-10.746094 24-24-10.746094-24-24-24zm0 32c-4.417969 0-8-3.582031-8-8s3.582031-8 8-8 8 3.582031 8 8-3.582031 8-8 8zm0 0"/></svg>