<svg height="472pt" viewBox="-4 0 472 472.00013" width="472pt" xmlns="http://www.w3.org/2000/svg"><path d="m280 112h48l-57.839844-96.480469c-5.800781-9.65625-16.253906-15.550781-27.519531-15.519531h-21.28125c-11.265625-.03125-21.71875 5.863281-27.519531 15.519531l-57.839844 96.480469zm0 0" fill="#a9c1a7"/><path d="m136 112h192v136h-192zm0 0" fill="#326462"/><path d="m376 280 16 10.160156v-178.160156c0-17.671875-14.328125-32-32-32s-32 14.328125-32 32v100zm0 0" fill="#a9c1a7"/><path d="m88 280 48-68v-100c0-17.671875-14.328125-32-32-32s-32 14.328125-32 32v178.160156zm0 0" fill="#a9c1a7"/><g fill="#ad3743"><path d="m328 136h64v56h-64zm0 0"/><path d="m72 136h64v56h-64zm0 0"/><path d="m242.640625 0h-21.28125c-11.265625-.03125-21.71875 5.863281-27.519531 15.519531l-9.839844 16.480469h96l-9.839844-16.480469c-5.800781-9.65625-16.253906-15.550781-27.519531-15.519531zm0 0"/></g><path d="m376 280-96-136v208h16c8.835938 0 16 7.164062 16 16v16h136c8.835938 0 16-7.164062 16-16v-23.121094c.039062-5.554687-2.808594-10.734375-7.519531-13.679687zm0 0" fill="#f5f4d5"/><path d="m152 368c0-8.835938 7.164062-16 16-16h16v-208l-96 136-80.480469 51.199219c-4.710937 2.945312-7.5585935 8.125-7.519531 13.679687v23.121094c0 8.835938 7.164062 16 16 16h136zm0 0" fill="#f5f4d5"/><path d="m136 352h-136v16c0 8.835938 7.164062 16 16 16h136v-16c0-8.835938 7.164062-16 16-16h16v-208l-32 45.359375v146.640625c0 8.835938-7.164062 16-16 16zm0 0" fill="#a9c1a7"/><path d="m312 336v-146.640625l-32-45.359375v208h16c8.835938 0 16 7.164062 16 16v16h136c8.835938 0 16-7.164062 16-16v-16h-136c-8.835938 0-16-7.164062-16-16zm0 0" fill="#a9c1a7"/><path d="m168 352h128c8.835938 0 16 7.164062 16 16v48h-160v-48c0-8.835938 7.164062-16 16-16zm0 0" fill="#ad3743"/><path d="m200 416h64v24.480469c0 4.152343-3.367188 7.519531-7.519531 7.519531h-48.960938c-4.152343 0-7.519531-3.367188-7.519531-7.519531zm0 0" fill="#326462"/><path d="m144.480469 440h-28.558594c-2.457031.015625-4.761719-1.183594-6.160156-3.199219l-37.761719-52.800781h80v48.480469c0 4.152343-3.367188 7.519531-7.519531 7.519531zm0 0" fill="#ca7b14"/><path d="m319.519531 440h28.5625c2.453125.015625 4.757813-1.183594 6.160157-3.199219l37.757812-52.800781h-80v48.480469c0 4.152343 3.367188 7.519531 7.519531 7.519531zm0 0" fill="#ca7b14"/><path d="m280 352v-235.121094c.007812-3.191406-.941406-6.308594-2.71875-8.957031l-24.480469-36.722656c-2.976562-4.515625-8.03125-7.226563-13.441406-7.199219h-14.71875c-5.410156-.027344-10.464844 2.683594-13.441406 7.199219l-24.480469 36.722656c-1.777344 2.648437-2.726562 5.765625-2.71875 8.957031v235.121094zm0 0" fill="#ad3743"/><path d="m248 120h-32c-4.417969 0-8 3.582031-8 8v32c-.011719 2.125.824219 4.171875 2.320312 5.679688l43.359376-43.359376c-1.507813-1.496093-3.554688-2.332031-5.679688-2.320312zm0 0" fill="#f5f4d5"/><path d="m210.320312 165.679688c1.511719 1.496093 3.554688 2.332031 5.679688 2.320312h32c4.417969 0 8-3.582031 8-8v-32c.011719-2.125-.820312-4.171875-2.320312-5.679688zm0 0" fill="#a9c1a7"/><path d="m184 200h96v152h-96zm0 0" fill="#ca7b14"/><path d="m104 184c-4.417969 0-8-3.582031-8-8v-24c0-4.417969 3.582031-8 8-8s8 3.582031 8 8v24c0 4.417969-3.582031 8-8 8zm0 0" fill="#ca7b14"/><path d="m360 184c-4.417969 0-8-3.582031-8-8v-24c0-4.417969 3.582031-8 8-8s8 3.582031 8 8v24c0 4.417969-3.582031 8-8 8zm0 0" fill="#ca7b14"/><path d="m120 336h-48c-4.417969 0-8-3.582031-8-8s3.582031-8 8-8h48c4.417969 0 8 3.582031 8 8s-3.582031 8-8 8zm0 0" fill="#326462"/><path d="m392 336h-48c-4.417969 0-8-3.582031-8-8s3.582031-8 8-8h48c4.417969 0 8 3.582031 8 8s-3.582031 8-8 8zm0 0" fill="#326462"/><path d="m232 472c-4.417969 0-8-3.582031-8-8v-80c0-4.417969 3.582031-8 8-8s8 3.582031 8 8v80c0 4.417969-3.582031 8-8 8zm0 0" fill="#ca7b14"/><path d="m248 256h-32c-4.417969 0-8-3.582031-8-8s3.582031-8 8-8h32c4.417969 0 8 3.582031 8 8s-3.582031 8-8 8zm0 0" fill="#a9c1a7"/></svg>