<svg height="479pt" viewBox="-7 0 479 479.6666" width="479pt" xmlns="http://www.w3.org/2000/svg"><path d="m79.140625 415.554688c-8.632813.492187-17.09375-2.554688-23.429687-8.441407-32.609376-32.605469 34.320312-134.726562 113.839843-214.253906s181.671875-146.398437 214.253907-113.847656c32.609374 32.632812-34.320313 134.734375-113.871094 214.230469-65.375 65.425781-146.0625 122.3125-190.792969 122.3125zm281.304687-329.023438c-29.601562 0-99.640624 37.703125-179.585937 117.601562-94.621094 94.710938-130.070313 175.429688-113.839844 191.671876 16.234375 16.238281 96.984375-19.203126 191.625-113.847657 94.640625-94.648437 130.082031-175.386719 113.847657-191.632812-3.359376-2.796875-7.6875-4.160157-12.046876-3.792969zm0 0" fill="#ef748e"/><path d="m379.757812 242.066406c0 88.367188-71.636718 160-160 160-88.367187 0-160-71.632812-160-160 0-88.363281 71.632813-160 160-160 88.363282 0 160 71.636719 160 160zm0 0" fill="#ffc5c3"/><path d="m219.757812 278.042969c.054688 1.339843.1875 2.675781.398438 4h-28.398438c-19.882812 0-36 16.117187-36 36 0 19.882812 16.117188 36 36 36h46.175782c-6.277344 16.925781 1.234375 35.859375 17.40625 43.878906 72.746094-16.59375 124.363281-81.265625 124.417968-155.878906h-124c-19.882812 0-36 16.117187-36 36zm0 0" fill="#fbb1b3"/><path d="m70.03125 186.042969h41.726562c19.882813 0 36-16.117188 36-36-.039062-4.097657-.785156-8.15625-2.207031-12h46.207031c13.257813-.011719 25.433594-7.308594 31.699219-18.992188 6.261719-11.683593 5.597657-25.863281-1.730469-36.910156-.664062 0-1.304687-.097656-1.96875-.097656-66.71875.035156-126.402343 41.492187-149.726562 104zm0 0" fill="#fbaeb3"/><path d="m417.933594 69.042969-41.648438 34.703125-41.648437-34.703125c-4.03125-3.363281-6.359375-8.347657-6.351563-13.601563v-.382812c0-4.679688 1.859375-9.167969 5.167969-12.480469 6.214844-6.214844 16.050781-6.910156 23.082031-1.640625l19.75 14.808594 19.753906-14.808594c7.027344-5.269531 16.863282-4.574219 23.078126 1.640625 3.308593 3.3125 5.167968 7.800781 5.167968 12.480469v.417968c0 5.238282-2.328125 10.207032-6.351562 13.566407zm0 0" fill="#f55648"/><path d="m333.398438 311.355469-41.640626 34.6875-41.648437-34.710938c-4.035156-3.363281-6.363281-8.347656-6.351563-13.601562v-.414063c-.003906-4.683594 1.855469-9.175781 5.167969-12.488281 6.222657-6.203125 16.058594-6.882813 23.078125-1.601563l19.753906 14.816407 19.777344-14.792969c7.019532-5.28125 16.855469-4.601562 23.078125 1.601562 3.3125 3.3125 5.175781 7.804688 5.175781 12.488282v.414062c.007813 5.261719-2.335937 10.25-6.390624 13.601563zm0 0" fill="#e85244"/><path d="m269.933594 293.242188c36.15625-35.511719 68.058594-75.113282 95.0625-118 .476562-.757813.828125-1.585938 1.050781-2.453126-2.402344-5.027343-5.601563-11.28125-8.472656-16l-1.359375 1.597657c-26.863282 45.359375-59.6875 86.910156-97.601563 123.535156-36.21875 37.464844-77.234375 69.96875-121.984375 96.664063.230469.144531-7.472656 8.21875-7.304687 8.425781 3.199219 3.894531 5.882812 6.765625 6.992187 8 5.90625-1.925781 11.59375-4.457031 16.976563-7.550781 42.351562-26.847657 81.488281-58.460938 116.640625-94.21875zm0 0" fill="#ef748e"/><path d="m72.332031 7.644531-4.6875 9.375c-7.242187 14.488281-19.945312 25.503907-35.3125 30.625 15.367188 5.117188 28.070313 16.132813 35.3125 30.621094l4.6875 9.378906 4.6875-9.378906c7.242188-14.488281 19.945313-25.503906 35.3125-30.621094-15.367187-5.121093-28.070312-16.136719-35.3125-30.625zm0 0" fill="#f3af3e"/><path d="m360.332031 391.644531-4.6875 9.375c-7.242187 14.488281-19.945312 25.503907-35.3125 30.625 15.367188 5.117188 28.070313 16.132813 35.3125 30.621094l4.6875 9.378906 4.6875-9.378906c7.242188-14.488281 19.945313-25.503906 35.3125-30.621094-15.367187-5.121093-28.070312-16.136719-35.3125-30.625zm0 0" fill="#fbb540"/><g fill="#6fbbc6"><path d="m16.332031 119.644531h16v16h-16zm0 0"/><path d="m16.332031 151.644531h16v16h-16zm0 0"/><path d="m.332031 135.644531h16v16h-16zm0 0"/><path d="m32.332031 135.644531h16v16h-16zm0 0"/></g><path d="m424.332031 311.644531h16v16h-16zm0 0" fill="#8aced8"/><path d="m424.332031 359.644531h16v16h-16zm0 0" fill="#8aced8"/><path d="m448.332031 335.644531h16v16h-16zm0 0" fill="#8aced8"/><path d="m400.332031 335.644531h16v16h-16zm0 0" fill="#8aced8"/><path d="m432.285156 55.058594c.019532-6.804688-2.6875-13.335938-7.511718-18.136719-9.046876-8.984375-23.304688-10.007813-33.535157-2.398437l-14.953125 11.199218-14.953125-11.199218c-11.246093-8.261719-27.019531-6.097657-35.625 4.890624-8.601562 10.988282-6.917969 26.824219 3.800781 35.757813l1.539063 1.269531c-12.007813 4.433594-23.621094 9.875-34.714844 16.257813-23.144531-11.941407-48.765625-18.292969-74.808593-18.542969h-.132813c-.53125 0-1.066406-.074219-1.601563-.074219-5.105468 0-10.152343.304688-15.199218.800781-1.9375.175782-3.839844.441407-5.761719.679688-2.894531.367188-5.773437.800781-8.640625 1.320312-2.453125.441407-4.894531.894532-7.308594 1.441407-1.859375.421875-3.679687.933593-5.511718 1.421875-10.679688 2.785156-21.054688 6.625-30.96875 11.464844l-.800782.390624c-18.515625 9.164063-35.191406 21.652344-49.191406 36.839844-.410156.441406-.800781.890625-1.21875 1.335938-2.597656 2.882812-5.125 5.816406-7.527344 8.875l-.136718.183594c-7.503907 9.605468-13.941407 20-19.199219 31-.351563.742187-.726563 1.472656-1.070313 2.222656-1.601562 3.382812-2.992187 6.816406-4.328125 10.3125-.121093.320312-.273437.617187-.390625.929687-.050781.125-.050781.261719-.089844.390625-16.578124 43.902344-13.773437 92.777344 7.71875 134.496094-24.503906 43.054688-29.542968 73.839844-14.453124 88.925781 6.371093 5.933594 14.886718 9.015625 23.582031 8.53125 16.160156 0 37.710937-7.402343 63.871093-22.082031.648438-.359375 1.335938-.800781 1.984376-1.175781 34.554687 17.425781 74.132812 22.160156 111.824218 13.382812h.175782c.554687-.125 1.074218-.308593 1.601562-.4375 9.777344-2.308593 19.324219-5.503906 28.527344-9.535156 4.199218-1.824219 8.304687-3.792969 12.304687-5.9375l.597657-.34375c38.183593-20.632813 66.789062-55.371094 79.714843-96.800781.175781-.542969.34375-1.097656.511719-1.648438 1.296875-4.304687 2.421875-8.675781 3.375-13.109375.25-1.144531.511719-2.289062.742188-3.441406.800781-4.039063 1.386718-8.128906 1.875-12.265625.160156-1.328125.382812-2.640625.511718-4 .503906-5.335938.800782-10.726562.800782-16.183594-.023438-26.078125-6.160157-51.789062-17.921876-75.0625 14.007813-24.90625 22.097657-46.777344 22.480469-63.066406 0-.929688-.164062-1.855469-.488281-2.726562l31.199219-26.023438c5.96875-4.96875 9.386719-12.363281 9.304687-20.128906zm-349.734375 122.039062c4.292969-9.050781 9.476563-17.65625 15.480469-25.679687l.925781-1.230469c21.367188-27.945312 51.699219-47.691406 85.902344-55.921875l.273437-.070313c2.898438-.6875 5.824219-1.25 8.800782-1.761718 1.601562-.277344 3.199218-.511719 4.800781-.742188 2.398437-.34375 4.800781-.703125 7.269531-.929687 3.664063-.328125 7.371094-.496094 11.097656-.558594 4.070313 8.664063 3.425782 18.8125-1.714843 26.890625-5.136719 8.078125-14.054688 12.964844-23.628907 12.949219h-46.207031c-2.597656 0-5.035156 1.265625-6.53125 3.386719-1.5 2.121093-1.875 4.835937-1.007812 7.285156 3.195312 8.550781 1.964843 18.121094-3.285157 25.585937-5.25 7.464844-13.84375 11.855469-22.96875 11.742188h-29.679687c.152344-.304688.3125-.625.472656-.945313zm-15.53125 218.707032c-6.542969-6.546876-6.148437-26.058594 12.503907-61.457032 12.886718 19.5 29.675781 36.113282 49.304687 48.800782-35.75 18.894531-55.351563 19.125-61.808594 12.65625zm77.640625-21.761719c-63.1875-35.6875-92.148437-111.214844-69.015625-180h36.113281c24.289063-.03125 43.96875-19.710938 44-44-.003906-1.335938-.070312-2.671875-.207031-4h36.207031c13.6875.097656 26.628907-6.226563 34.960938-17.082031 8.335938-10.855469 11.105469-24.992188 7.480469-38.191407 49.160156 4.765625 92.949219 33.105469 117.429687 76-14.566406 23.664063-30.949218 46.15625-49 67.28125h-46.871094c-22.742187.023438-41.730468 17.355469-43.824218 40h-20.175782c-20.148437.023438-37.707031 13.734375-42.617187 33.273438-4.914063 19.539062 4.074219 39.921875 21.816406 49.472656-8.980469 6.34375-17.746093 12.09375-26.296875 17.246094zm123.128906-101.441407c-8.683593-2.125-17.847656.378907-24.246093 6.621094-6.398438 6.242188-9.125 15.34375-7.210938 24.078125-16.796875 15.511719-33.597656 29.703125-50.039062 42.214844-14.085938-2.839844-23.738281-15.882813-22.335938-30.183594 1.40625-14.300781 13.40625-25.21875 27.777344-25.265625h28.398437c2.277344 0 4.445313-.96875 5.964844-2.664062 1.515625-1.699219 2.242188-3.960938 1.988282-6.222656l-.175782-1.335938c-.101562-.585938-.160156-1.179688-.175781-1.777344 0-15.464844 12.535156-28 28-28h33c-6.710937 7.515625-13.691406 15.027344-20.945313 22.535156zm3.046876 19.769532 16.121093 12.070312c2.84375 2.136719 6.753907 2.136719 9.601563 0l19.773437-14.789062c3.851563-2.867188 9.222657-2.480469 12.625.902344 1.902344 1.921874 2.925781 4.539062 2.832031 7.242187.007813 2.867187-1.269531 5.585937-3.480468 7.414063l-36.550782 30.433593-35.199218-29.335937c4.488281-4.289063 8.957031-8.601563 13.40625-13.050782zm-51.078126 101.671875c-19.984374.007812-39.773437-3.949219-58.214843-11.640625 9.597656-6.128906 19.429687-12.925782 29.496093-20.398438h.71875 36.199219c-.132812 1.328125-.199219 2.664063-.199219 4-.007812 9.796875 3.296876 19.308594 9.375 26.992188-5.765624.679687-11.566406 1.03125-17.375 1.046875zm151.34375-139.054688c-.121093 1.445313-.242187 2.894531-.398437 4.335938-.472656 4.191406-1.089844 8.34375-1.90625 12.429687-.070313.378906-.121094.753906-.191406 1.128906-10.179688 48.578126-43.359375 89.164063-88.945313 108.800782-2.039062.863281-4.152344 1.597656-6.246094 2.398437-1.898437.722657-3.792968 1.457031-5.730468 2.105469-2.917969.960938-5.902344 1.800781-8.910156 2.601562l-2.238282.574219c-7.953125-5.089843-12.773437-13.871093-12.800781-23.3125.035156-3.179687.625-6.332031 1.742187-9.3125.878907-2.453125.507813-5.175781-.992187-7.304687-1.503906-2.128906-3.945313-3.394532-6.550781-3.390625h-26.449219c11.050781-8.964844 22.148437-18.566407 33.289063-28.800781.078124.066406.128906.144531.207031.207031l41.648437 34.714843c2.96875 2.472657 7.28125 2.472657 10.25 0l41.644532-34.714843c5.945312-4.976563 9.335937-12.367188 9.234374-20.117188.019532-6.8125-2.6875-13.347656-7.519531-18.144531-9.046875-8.984375-23.296875-10.003906-33.527343-2.398438l-14.953126 11.199219-9.648437-7.199219c9.828125-10.269531 19.136719-20.523437 27.929687-30.769531h61.308594c-.085937 1.6875-.109375 3.34375-.246094 4.96875zm.246094-20.921875h-48c13.167969-16.148437 25.394532-33.035156 36.625-50.582031 6.679688 16.070313 10.527344 33.175781 11.375 50.558594zm-10.742187-83.269531c-12.558594-19.339844-28.9375-35.910156-48.128907-48.699219 10.558594-5.675781 21.707032-10.167968 33.25-13.398437l25.4375 21.191406c1.222657.984375 2.710938 1.582031 4.273438 1.710937-2.988281 13.722657-7.984375 26.929688-14.832031 39.195313zm52.207031-87.898437-36.527344 30.402343-36.519531-30.402343c-2.296875-1.945313-3.578125-4.832032-3.480469-7.839844.023438-5.316406 4.347656-9.613282 9.664063-9.597656 2.085937-.003907 4.117187.664062 5.792969 1.910156l19.792968 14.777344c2.84375 2.132812 6.753906 2.132812 9.597656 0l19.746094-14.816407c3.855469-2.863281 9.222656-2.480469 12.628906.902344 1.886719 1.914063 2.90625 4.515625 2.824219 7.199219.003907 2.890625-1.289062 5.628906-3.519531 7.464844zm0 0"/><path d="m65.171875 91.21875c1.355469 2.714844 4.128906 4.433594 7.160156 4.433594 3.035157 0 5.808594-1.71875 7.160157-4.433594l4.679687-9.367188c6.261719-12.617187 17.3125-22.203124 30.6875-26.617187 3.285156-1.078125 5.503906-4.144531 5.503906-7.597656 0-3.457031-2.21875-6.523438-5.503906-7.601563-13.371094-4.410156-24.421875-13.988281-30.6875-26.601562l-4.636719-9.367188c-1.503906-2.519531-4.226562-4.066406-7.160156-4.066406-2.9375 0-5.65625 1.546875-7.160156 4.066406l-4.722656 9.367188c-6.257813 12.621094-17.3125 22.203125-30.6875 26.617187-3.28125 1.078125-5.5 4.144531-5.5 7.601563 0 3.453125 2.21875 6.519531 5.5 7.597656 13.375 4.410156 24.425781 13.988281 30.6875 26.601562zm-14.496094-43.574219c8.859375-5.742187 16.273438-13.453125 21.65625-22.53125 5.386719 9.078125 12.796875 16.789063 21.65625 22.53125-8.859375 5.738281-16.269531 13.449219-21.65625 22.527344-5.382812-9.078125-12.796875-16.789063-21.65625-22.527344zm0 0"/><path d="m408.332031 431.644531c.003907-3.445312-2.203125-6.503906-5.472656-7.59375-13.375-4.414062-24.425781-13.996093-30.6875-26.617187l-4.636719-9.367188c-1.503906-2.519531-4.226562-4.066406-7.160156-4.066406-2.9375 0-5.65625 1.546875-7.160156 4.066406l-4.679688 9.367188c-6.261718 12.621094-17.3125 22.203125-30.691406 26.617187-3.28125 1.078125-5.5 4.144531-5.5 7.601563 0 3.453125 2.21875 6.519531 5.5 7.597656 13.378906 4.414062 24.429688 14 30.691406 26.617188l4.679688 9.367187c1.351562 2.714844 4.125 4.433594 7.160156 4.433594 3.03125 0 5.804688-1.71875 7.160156-4.433594l4.679688-9.367187c6.257812-12.617188 17.308594-22.203126 30.6875-26.617188 3.257812-1.101562 5.445312-4.167969 5.429687-7.605469zm-48 22.527344c-5.382812-9.078125-12.796875-16.789063-21.65625-22.527344 8.859375-5.742187 16.273438-13.453125 21.65625-22.53125 5.386719 9.078125 12.796875 16.789063 21.65625 22.53125-8.859375 5.738281-16.269531 13.449219-21.65625 22.527344zm0 0"/><path d="m16.332031 119.644531h16v16h-16zm0 0"/><path d="m16.332031 151.644531h16v16h-16zm0 0"/><path d="m.332031 135.644531h16v16h-16zm0 0"/><path d="m32.332031 135.644531h16v16h-16zm0 0"/><path d="m424.332031 311.644531h16v16h-16zm0 0"/><path d="m424.332031 359.644531h16v16h-16zm0 0"/><path d="m448.332031 335.644531h16v16h-16zm0 0"/><path d="m400.332031 335.644531h16v16h-16zm0 0"/></svg>