<svg height="479pt" viewBox="0 -8 479.68808 479" width="479pt" xmlns="http://www.w3.org/2000/svg"><path d="m472 240.34375c0 106.039062-85.960938 192-192 192s-192-85.960938-192-192 85.960938-192 192-192 192 85.960938 192 192zm0 0" fill="#fbb040"/><path d="m289.191406 130.871094c-18.488281-1.101563-36.464844-6.507813-52.496094-15.78125-20.941406-10.296875-42.644531-18.96875-64.910156-25.945313-4.234375-1.261719-6.648437-5.71875-5.386718-9.953125 1.261718-4.234375 5.71875-6.644531 9.953124-5.382812 23.171876 7.226562 45.742188 16.253906 67.503907 27 37.480469 18.734375 54.160156 18.792968 84.992187.296875 35.671875-21.402344 83.738282-8 85.769532-7.457031 4.25 1.210937 6.710937 5.640624 5.5 9.890624-1.214844 4.25-5.644532 6.714844-9.894532 5.5-.421875-.117187-43.488281-12-73.144531 5.785157-14.144531 9.722656-30.738281 15.285156-47.886719 16.046875zm0 0" fill="#c98935"/><path d="m174.0625 407.230469c-2.960938-.003907-5.679688-1.644531-7.0625-4.265625-1.382812-2.617188-1.203125-5.789063.464844-8.238282 1.191406-1.742187 29.742187-42.613281 75.015625-29.664062 18.398437 5.273438 30.765625-.308594 43.808593-6.222656 16.535157-7.496094 35.261719-16 63.886719.351562 36.914063 21.089844 59.007813 12.871094 59.199219 12.800782 4.09375-1.613282 8.71875.351562 10.402344 4.414062 1.664062 4.050781-.234375 8.683594-4.257813 10.402344-1.160156.480468-28.902343 11.6875-73.28125-13.671875-21.519531-12.296875-33.796875-6.71875-49.34375.328125-14.398437 6.535156-30.710937 13.933594-54.816406 7.039062-34.078125-9.726562-56.476563 21.96875-57.414063 23.328125-1.507812 2.148438-3.976562 3.417969-6.601562 3.398438zm0 0" fill="#c98935"/><path d="m101.238281 314.550781c-2.671875 0-5.171875-1.335937-6.65625-3.5625-1.484375-2.226562-1.757812-5.046875-.726562-7.515625.359375-.847656 36.457031-85.25 114.746093-71 20.398438 3.9375 40.105469 10.859375 58.488282 20.542969 28.679687 13.855469 45.972656 22.242187 94.949218-6.335937 35.253907-21.046876 79.234376-20.953126 114.402344.242187 3.421875 2.523437 4.265625 7.289063 1.925782 10.839844-2.34375 3.550781-7.058594 4.648437-10.726563 2.496093-30.078125-17.800781-67.488281-17.710937-97.480469.238282-56.320312 32.847656-80 21.40625-109.976562 6.921875-17.101563-9.019531-35.425782-15.488281-54.398438-19.203125-65.785156-12-96.800781 60.679687-97.121094 61.417968-1.25 2.992188-4.179687 4.9375-7.425781 4.917969zm0 0" fill="#c98935"/><g fill="#506f86"><path d="m200.550781 154.273438c0 10.972656-15.511719 19.863281-26.480469 19.863281-10.964843 0-13.246093 0-13.246093-19.863281 0-10.96875 8.894531-13.242188 19.863281-13.242188s19.863281 2.273438 19.863281 13.242188zm0 0"/><path d="m262.398438 197.753906c0 8.796875-8.597657 10.589844-19.199219 10.589844-10.597657 0-19.199219-1.816406-19.199219-10.589844 1-9.644531 9.539062-16.714844 19.199219-15.890625 9.660156-.824219 18.203125 6.246094 19.199219 15.890625zm0 0"/><path d="m405.792969 154.273438c.003906 10.972656-8.890625 19.867187-19.863281 19.863281-10.96875 0-13.242188-8.890625-13.242188-19.863281 0-10.976563 2.273438-19.855469 13.242188-19.855469 10.96875-.007813 19.863281 8.886719 19.863281 19.855469zm0 0"/><path d="m419.863281 296.59375c.152344 7.933594-3.996093 15.332031-10.84375 19.34375-6.847656 4.011719-15.328125 4.011719-22.175781 0s-10.996094-11.410156-10.84375-19.34375c0-12.113281 9.816406-7.3125 21.929688-7.3125 12.109374 0 21.933593-4.800781 21.933593 7.3125zm0 0"/><path d="m200.550781 299.929688c-1.234375 10.414062-9.445312 18.625-19.863281 19.863281-10.96875 0-26.480469-13.242188-19.863281-19.863281 5.175781-5.167969 8.894531-13.242188 19.863281-13.242188s19.863281 5.929688 19.863281 13.242188zm0 0"/><path d="m16 40.34375c0 4.417969 3.582031 8 8 8s8-3.582031 8-8v-8h8c4.417969 0 8-3.582031 8-8s-3.582031-8-8-8h-8v-8c0-4.417969-3.582031-8-8-8s-8 3.582031-8 8v8h-8c-4.417969 0-8 3.582031-8 8s3.582031 8 8 8h8zm0 0"/><path d="m128 45.007812h-8.335938v-4.664062c0-4.417969-3.582031-8-8-8-4.417968 0-8 3.582031-8 8v4.664062h-7.664062c-4.417969 0-8 3.582032-8 8 0 4.417969 3.582031 8 8 8h7.664062v11.335938c0 4.417969 3.582032 8 8 8 4.417969 0 8-3.582031 8-8v-11.335938h8.335938c4.417969 0 8-3.582031 8-8 0-4.417968-3.582031-8-8-8zm0 0"/><path d="m26.34375 82.6875c-3.121094 3.125-3.121094 8.1875 0 11.3125l11.3125 11.3125-5.65625 5.664062c-2.078125 2.007813-2.914062 4.984376-2.179688 7.78125.730469 2.796876 2.914063 4.980469 5.710938 5.710938 2.796875.734375 5.773438-.101562 7.78125-2.179688l5.65625-5.664062 5.664062 5.664062c2.007813 2.078126 4.980469 2.914063 7.777344 2.179688 2.800782-.730469 4.984375-2.914062 5.714844-5.710938.734375-2.796874-.101562-5.773437-2.179688-7.78125l-5.664062-5.664062 5.664062-5.65625c3.03125-3.140625 2.988282-8.128906-.097656-11.214844-3.085937-3.085937-8.078125-3.128906-11.214844-.097656l-5.664062 5.65625-11.3125-11.3125c-3.125-3.121094-8.1875-3.121094-11.3125 0zm0 0"/><path d="m58.34375 410.6875-14.34375 14.34375-6.34375-6.34375c-3.140625-3.03125-8.128906-2.988281-11.214844.097656-3.085937 3.085938-3.128906 8.074219-.097656 11.214844l6.34375 6.34375-14.34375 14.34375c-2.078125 2.007812-2.914062 4.984375-2.179688 7.78125.730469 2.796875 2.914063 4.980469 5.710938 5.710938 2.796875.734374 5.773438-.101563 7.78125-2.179688l14.34375-14.34375 6.34375 6.34375c3.140625 3.03125 8.128906 2.988281 11.214844-.097656 3.085937-3.085938 3.128906-8.074219.097656-11.214844l-6.34375-6.34375 14.34375-14.34375c3.03125-3.140625 2.988281-8.128906-.097656-11.214844-3.085938-3.085937-8.074219-3.128906-11.214844-.097656zm0 0"/></g></svg>