<?xml version="1.0" encoding="iso-8859-1"?>
<!-- Generator: Adobe Illustrator 19.0.0, SVG Export Plug-In . SVG Version: 6.00 Build 0)  -->
<svg version="1.1" id="Capa_1" xmlns="http://www.w3.org/2000/svg" xmlns:xlink="http://www.w3.org/1999/xlink" x="0px" y="0px"
	 viewBox="0 0 496 496" style="enable-background:new 0 0 496 496;" xml:space="preserve">
<path style="fill:#FFA64D;" d="M248,496C111.248,496,0,384.752,0,248S111.248,0,248,0s248,111.248,248,248S384.752,496,248,496z"/>
<g>
	<path style="fill:#333333;" d="M456,208c-10.176,0-19.376,3.936-26.448,10.224c-12.688-77.648-74.128-139.088-151.776-151.776
		C284.064,59.376,288,50.176,288,40c0-22.056-17.944-40-40-40s-40,17.944-40,40c0,10.176,3.936,19.376,10.224,26.448
		C140.576,79.136,79.136,140.576,66.448,218.224C59.376,211.936,50.176,208,40,208c-22.056,0-40,17.944-40,40s17.944,40,40,40
		c10.176,0,19.376-3.936,26.448-10.224c12.688,77.648,74.128,139.088,151.776,151.776C211.936,436.624,208,445.824,208,456
		c0,22.056,17.944,40,40,40s40-17.944,40-40c0-10.16-3.928-19.336-10.184-26.4c39.632-6.376,75.816-25.44,104.008-55.312
		l-11.64-10.984C338.112,397.288,294.72,416,248,416c-92.632,0-168-75.368-168-168S155.368,80,248,80s168,75.368,168,168
		c0,37.352-12,72.72-34.696,102.256l12.688,9.752c18.728-24.384,30.792-52.376,35.616-82.192C436.664,284.08,445.848,288,456,288
		c22.056,0,40-17.944,40-40S478.056,208,456,208z M272,456c0,13.232-10.768,24-24,24s-24-10.768-24-24s10.768-24,24-24
		S272,442.768,272,456z M40,272c-13.232,0-24-10.768-24-24s10.768-24,24-24s24,10.768,24,24S53.232,272,40,272z M224,40
		c0-13.232,10.768-24,24-24s24,10.768,24,24s-10.768,24-24,24S224,53.232,224,40z M456,272c-13.232,0-24-10.768-24-24
		s10.768-24,24-24s24,10.768,24,24S469.232,272,456,272z"/>
	
		<rect x="117.746" y="71.729" transform="matrix(-0.809 0.5878 -0.5878 -0.809 274.3319 70.3191)" style="fill:#333333;" width="15.992" height="16"/>
	
		<rect x="42.167" y="175.725" transform="matrix(-0.309 0.9511 -0.9511 -0.309 240.4003 192.7874)" style="fill:#333333;" width="15.999" height="15.999"/>
	
		<rect x="42.163" y="304.243" transform="matrix(-0.9512 0.3086 -0.3086 -0.9512 194.2353 593.7664)" style="fill:#333333;" width="16" height="16"/>
	
		<rect x="117.697" y="408.285" transform="matrix(-0.5881 0.8088 -0.8088 -0.5881 536.3035 559.4309)" style="fill:#333333;" width="16" height="15.992"/>
	
		<rect x="362.245" y="408.275" transform="matrix(-0.809 0.5878 -0.5878 -0.809 914.4556 535.4144)" style="fill:#333333;" width="15.992" height="16"/>
	
		<rect x="437.748" y="304.248" transform="matrix(-0.309 0.9511 -0.9511 -0.309 880.457 -15.1935)" style="fill:#333333;" width="15.999" height="15.999"/>
	
		<rect x="437.819" y="175.724" transform="matrix(-0.9512 0.3086 -0.3086 -0.9512 926.5749 220.9032)" style="fill:#333333;" width="16" height="16"/>
	
		<rect x="362.266" y="71.754" transform="matrix(-0.5881 0.8088 -0.8088 -0.5881 652.5187 -172.8179)" style="fill:#333333;" width="16" height="15.992"/>
	<path style="fill:#333333;" d="M387.312,232l-10.744-10.744C342.224,186.912,296.568,168,248,168s-94.224,18.912-128.568,53.256
		L108.688,232l10.744,10.744c12.736,12.736,27.048,23.328,42.472,31.648c-7.288,2.352-13.984,6.384-19.552,11.96
		c-9.256,9.24-14.352,21.536-14.352,34.616V336h16v-15.032c0-8.68,3.52-17.168,9.656-23.312C159.8,291.52,168.288,288,176.968,288
		h8.96c6.32,20.016,31.792,80,110.072,80c29.832,0,56-22.432,56-48c0-18.168-10.144-34.008-25.072-42.16
		c18.144-8.768,34.968-20.432,49.64-35.104L387.312,232z M308.952,195.616C300.536,222.008,276.216,240,248,240
		c-28.208,0-52.536-17.992-60.944-44.384C206.208,188.048,226.784,184,248,184S289.792,188.048,308.952,195.616z M296,352
		c-60.992,0-84.44-40.8-92.456-61.664C217.928,293.936,232.792,296,248,296c8.712,0,17.288-0.816,25.76-2.016
		C272.712,297.152,272,300.48,272,304c0,17.648,14.352,32,32,32c14.872,0,27.288-10.232,30.864-24c0.672,2.576,1.136,5.224,1.136,8
		C336,336.448,316.56,352,296,352z M304,288c11.792,0,22,6.48,27.552,16H320c0,8.824-7.176,16-16,16s-16-7.176-16-16
		S295.176,288,304,288z M248,280c-44.024,0-85.432-17.04-116.688-48c12.288-12.168,26.176-22.096,41.136-29.776
		C183.456,234.272,213.36,256,248,256s64.536-21.728,75.56-53.768c14.96,7.68,28.848,17.608,41.128,29.768
		C333.432,262.96,292.024,280,248,280z"/>
	<path style="fill:#333333;" d="M248,152c49.544,0,98.008,17.824,132.96,48.896l5.728,5.088l10.624-11.968l-5.728-5.08
		C353.184,154.8,302.192,136,248,136s-105.184,18.8-143.584,52.928l-5.728,5.088l10.624,11.968l5.728-5.096
		C149.992,169.824,198.456,152,248,152z"/>
</g>
<g>
</g>
<g>
</g>
<g>
</g>
<g>
</g>
<g>
</g>
<g>
</g>
<g>
</g>
<g>
</g>
<g>
</g>
<g>
</g>
<g>
</g>
<g>
</g>
<g>
</g>
<g>
</g>
<g>
</g>
</svg>
