<svg height="480pt" viewBox="0 0 480 480" width="480pt" xmlns="http://www.w3.org/2000/svg" xmlns:xlink="http://www.w3.org/1999/xlink"><linearGradient id="a" gradientUnits="userSpaceOnUse" x1="0" x2="480" y1="240" y2="240"><stop offset="0" stop-color="#2193b0"/><stop offset="1" stop-color="#6dd5ed"/></linearGradient><path d="m480 240c0-28.414062-32.519531-50.910156-80.175781-66.054688 1.105469-2.144531 2.34375-4.320312 3.367187-6.402343 21.914063-44.976563 24.222656-79.496094 6.511719-97.207031-20.101563-20.167969-59.109375-13.03125-103.582031 10.023437-15.144532-47.75-37.664063-80.359375-66.121094-80.359375s-50.984375 32.617188-66.121094 80.367188c-44.472656-23.054688-83.480468-30.191407-103.582031-10.070313-17.710937 17.710937-15.402344 52.214844 6.503906 97.207031 1.023438 2.121094 2.261719 4.296875 3.367188 6.398438-47.648438 15.1875-80.167969 37.683594-80.167969 66.097656s32.519531 50.921875 80.175781 66.0625c-1.105469 2.136719-2.34375 4.320312-3.367187 6.402344-21.914063 45.007812-24.222656 79.535156-6.511719 97.246094 8.832031 8.214843 20.628906 12.476562 32.671875 11.808593 19.773438 0 44.375-8.144531 70.902344-21.894531 15.136718 47.757812 37.664062 80.375 66.128906 80.375s50.992188-32.617188 66.128906-80.382812c26.527344 13.75 51.128906 21.894531 70.902344 21.894531 12.042969.671875 23.839844-3.589844 32.671875-11.800781 17.710937-17.703126 15.402344-52.230469-6.511719-97.207032-1.023437-2.113281-2.261718-4.296875-3.367187-6.398437 47.65625-15.183594 80.175781-37.679688 80.175781-66.105469zm-103.703125-166.0625c8.097656-.53125 16.070313 2.238281 22.09375 7.679688 12.328125 12.328124 8.800781 41.078124-9.597656 78.878906-1.425781 2.910156-3.082031 5.902344-4.648438 8.871094-20.238281-5.3125-40.800781-9.320313-61.550781-12-2.664062-20.691407-6.644531-41.191407-11.921875-61.375 25.417969-13.726563 48.527344-22.054688 65.625-22.054688zm-64.296875 166.0625c0 9.785156-.257812 19.671875-.742188 29.550781-4.800781 5.242188-9.730468 10.449219-14.785156 15.617188l-23.136718-23.144531c8.886718-13.339844 8.886718-30.707032 0-44.046876l23.136718-23.136718c5.054688 5.171875 9.984375 10.378906 14.785156 15.617187.484376 9.878907.742188 19.765625.742188 29.542969zm-144 0c0-9.777344.257812-19.664062.742188-29.542969 4.800781-5.238281 9.730468-10.445312 14.785156-15.617187l23.136718 23.136718c-8.886718 13.339844-8.886718 30.707032 0 44.046876l-23.136718 23.144531c-5.054688-5.171875-9.984375-10.378907-14.785156-15.617188-.484376-9.878906-.742188-19.765625-.742188-29.550781zm117.175781-56.488281-23.152343 23.152343c-13.339844-8.886718-30.707032-8.886718-44.046876 0l-23.152343-23.152343c5.136719-4.992188 10.375-9.914063 15.710937-14.769531 9.855469-.484376 19.710938-.742188 29.464844-.742188s19.609375.257812 29.472656.742188c5.34375 4.84375 10.578125 9.765624 15.703125 14.769531zm-69.175781 56.488281c0-13.253906 10.746094-24 24-24s24 10.746094 24 24-10.746094 24-24 24-24-10.746094-24-24zm-21.207031 56.527344 23.199219-23.199219c13.339843 8.882813 30.710937 8.882813 44.046874 0l23.199219 23.199219c-5.117187 4.976562-10.347656 9.886718-15.6875 14.730468-9.871093.484376-19.75.742188-29.519531.742188-9.765625 0-19.648438-.257812-29.519531-.742188-5.355469-4.832031-10.59375-9.742187-15.71875-14.730468zm107.429687-118.75c-2.429687-2.433594-4.882812-4.832032-7.359375-7.203125 4.445313.402343 8.863281.847656 13.257813 1.335937.503906 4.441406.941406 8.90625 1.351562 13.394532-2.425781-2.527344-4.769531-5.046876-7.25-7.527344zm-26.222656-24.746094c-7.527344-6.734375-15.199219-13.269531-22.886719-19.527344 13.855469-10.484375 28.25-20.238281 43.117188-29.230468 4.140625 16.863281 7.398437 33.933593 9.769531 51.132812-9.855469-1.023438-19.878906-1.804688-30-2.375zm-25.71875-.917969c-3.425781-.050781-6.855469-.089843-10.28125-.089843s-6.855469 0-10.28125.089843c3.417969-2.839843 6.832031-5.65625 10.28125-8.410156 3.449219 2.730469 6.871094 5.542969 10.28125 8.410156zm-46.304688.941407c-10.097656.570312-20.121093 1.351562-30 2.402343 2.371094-17.203125 5.628907-34.273437 9.765626-51.136719 14.871093 8.992188 29.261718 18.75 43.121093 29.230469-7.710937 6.210938-15.359375 12.746094-22.863281 19.480469zm-18.839843 17.457031c-2.472657 2.398437-4.9375 4.800781-7.359375 7.199219-2.425782 2.402343-4.800782 5-7.25 7.496093.410156-4.488281.847656-8.949219 1.351562-13.390625 4.394532-.453125 8.8125-.886718 13.257813-1.304687zm-32.105469 33.449219c-6.894531 7.664062-13.597656 15.359374-19.878906 23.078124-10.550782-13.84375-20.304688-28.28125-29.207032-43.238281 16.96875-4.179687 34.148438-7.46875 51.460938-9.855469-1.007812 9.917969-1.804688 19.949219-2.375 30.046876zm-.933594 25.40625c-.066406 3.558593-.097656 7.101562-.097656 10.632812s.03125 7.066406.097656 10.609375c-2.992187-3.539063-5.992187-7.066406-8.851562-10.609375 2.859375-3.535156 5.859375-7.089844 8.851562-10.601562zm.933594 46.609374c.5625 10.09375 1.34375 20.136719 2.402344 30.023438-17.316406-2.390625-34.492188-5.683594-51.464844-9.855469 8.894531-14.957031 18.636719-29.390625 29.183594-43.234375 6.304687 7.746094 12.984375 15.433594 19.878906 23.097656zm17.496094 18.726563c2.402344 2.496094 4.800781 5.015625 7.25 7.496094 2.445312 2.480469 4.949218 4.800781 7.4375 7.242187-4.460938-.410156-8.917969-.847656-13.335938-1.351562-.503906-4.402344-.941406-8.875-1.351562-13.355469zm33.441406 32.234375c7.542969 6.742188 15.199219 13.246094 22.933594 19.519531-13.863282 10.515625-28.265625 20.308594-43.140625 29.335938-4.148438-16.886719-7.414063-33.976563-9.785157-51.199219 9.871094 1.03125 19.902344 1.8125 30.023438 2.375zm25.703125.941406c3.445313.058594 6.886719.089844 10.328125.089844s6.882812-.03125 10.328125-.089844c-3.425781 2.855469-6.867187 5.664063-10.328125 8.433594-3.457031-2.738281-6.898438-5.535156-10.328125-8.402344zm46.359375-.941406c10.089844-.5625 20.121094-1.34375 29.992188-2.402344-2.371094 17.226563-5.632813 34.316406-9.777344 51.199219-14.878906-8.988281-29.28125-18.742187-43.148438-29.222656 7.703125-6.296875 15.390625-12.800781 22.902344-19.542969zm18.753906-17.496094c2.488282-2.402344 5-4.800781 7.4375-7.242187 2.441406-2.4375 4.800782-5 7.25-7.496094-.410156 4.480469-.847656 8.953125-1.351562 13.386719-4.417969.535156-8.875.972656-13.335938 1.382812zm32.183594-33.457031c6.894531-7.671875 13.597656-15.359375 19.878906-23.082031 10.554688 13.84375 20.304688 28.28125 29.207032 43.242187-16.972657 4.171875-34.148438 7.464844-51.460938 9.855469 1.007812-9.886719 1.804688-19.886719 2.375-29.984375zm.933594-25.410156c.066406-3.511719.097656-7.039063.097656-10.574219s-.03125-7.070312-.097656-10.601562c2.992187 3.53125 5.992187 7.066406 8.851562 10.601562-2.859375 3.542969-5.859375 7.070312-8.851562 10.609375zm-.933594-46.613281c-.5625-10.097657-1.34375-20.128907-2.402344-30.015626 17.316406 2.386719 34.492188 5.675782 51.464844 9.855469-8.902344 14.957031-18.65625 29.394531-29.207031 43.238281-6.28125-7.6875-12.960938-15.382812-19.855469-23.046874zm-86.96875-187.960938c21.199219 0 39.199219 29.472656 51.878906 72.167969-18.023437 10.546875-35.351562 22.242187-51.878906 35.007812-16.527344-12.761719-33.855469-24.453125-51.878906-35 12.679687-42.703125 30.679687-72.175781 51.878906-72.175781zm-148.800781 144.496094c-18.398438-37.800782-21.910157-66.550782-9.597657-78.878906 6.023438-5.441407 13.996094-8.210938 22.09375-7.679688 17.136719 0 40.207032 8.328125 65.601563 22.078125-5.277344 20.183594-9.257813 40.683594-11.921875 61.375-20.753906 2.679687-41.3125 6.6875-61.550781 12-1.550781-2.992187-3.207031-5.984375-4.625-8.894531zm-75.199219 79.503906c0-21.160156 29.367188-39.113281 71.945312-51.808594 10.515626 18.023438 22.214844 35.332032 35.023438 51.808594-12.808594 16.476562-24.507812 33.785156-35.023438 51.808594-42.578124-12.6875-71.945312-30.648438-71.945312-51.808594zm65.601562 158.398438c-12.328124-12.328126-8.800781-41.078126 9.597657-78.886719 1.425781-2.902344 3.082031-5.902344 4.648437-8.863281 20.238282 5.316406 40.796875 9.328124 61.550782 12 2.664062 20.714843 6.652343 41.234374 11.9375 61.441406-39.183594 21.175781-72.742188 29.292968-87.734376 14.300781zm158.398438 65.601562c-21.207031 0-39.199219-29.488281-51.894531-72.214844 18.027343-10.539062 35.363281-22.21875 51.894531-34.976562 16.53125 12.757812 33.867188 24.4375 51.894531 34.976562-12.695312 42.726563-30.6875 72.214844-51.894531 72.214844zm148.800781-144.496094c18.398438 37.808594 21.910157 66.558594 9.597657 78.886719-15 14.984375-48.550782 6.867187-87.71875-14.351563 5.289062-20.199218 9.273437-40.71875 11.9375-61.429687 20.753906-2.675781 41.3125-6.683594 61.550781-12 1.558593 2.992187 3.214843 5.992187 4.632812 8.894531zm3.246094-27.695312c-10.515625-18.023438-22.214844-35.332032-35.023437-51.808594 12.808593-16.476562 24.507812-33.785156 35.023437-51.808594 42.585937 12.71875 71.953125 30.648438 71.953125 51.808594s-29.367188 39.121094-71.945312 51.808594zm0 0" fill="url(#a)"/></svg>