<svg height="480pt" viewBox="0 0 480 480" width="480pt" xmlns="http://www.w3.org/2000/svg"><path d="m472 240c0 128.128906-103.871094 232-232 232s-232-103.871094-232-232 103.871094-232 232-232 232 103.871094 232 232zm0 0" fill="#7fcac9"/><g fill="#c8d952"><path d="m256 176-48-16-8-32-56 32 24 80h80l40-24zm0 0"/><path d="m160 432-32-24-32.097656 13.753906c64.445312 51.152344 151.179687 64.3125 227.898437 34.582032l-43.800781-24.335938zm0 0"/><path d="m56 192 32-16v-48l-37.128906-22.28125c-39.890625 56.140625-52.789063 127.097656-35.199219 193.679688l56.328125-35.398438zm0 0"/><path d="m328 64-8-24 10.320312-13.761719c-53.257812-22.4375-112.960937-24.234375-167.472656-5.046875l61.152344 42.808594zm0 0"/><path d="m184 344-48-16 16-48 32 24 56 24 64-24-32 80h-80zm0 0"/><path d="m440 248-56 40-32 48-16 16 40 32 48-56s8-32 16-80zm0 0"/><path d="m336 128-32 16 24 40 56 40-8-56zm0 0"/></g><path d="m160.335938 242.296875c1.015624 3.382813 4.128906 5.703125 7.664062 5.703125h80c1.453125 0 2.875-.394531 4.121094-1.144531l40-24c1.976562-1.1875 3.347656-3.171875 3.753906-5.445313.40625-2.269531-.183594-4.609375-1.628906-6.410156l-32-40c-.964844-1.203125-2.253906-2.097656-3.71875-2.585938l-43.832032-14.613281-6.933593-27.738281c-.609375-2.429688-2.320313-4.433594-4.621094-5.417969-2.304687-.980469-4.933594-.832031-7.109375.410157l-56 32c-3.230469 1.847656-4.761719 5.675781-3.695312 9.242187zm34.464843-102.113281 5.4375 21.753906c.65625 2.65625 2.632813 4.789062 5.234375 5.648438l45.726563 15.253906 24.800781 31.007812-30.214844 18.152344h-71.832031l-20.457031-68.207031zm0 0"/><path d="m301.183594 296.503906-60.992188 22.878906-52.160156-22.398437-31.230469-23.382813c-2.058593-1.542968-4.730469-2-7.183593-1.234374-2.453126.769531-4.386719 2.667968-5.203126 5.105468l-16 48c-1.390624 4.1875.871094 8.710938 5.058594 10.113282l43.589844 14.542968 7.097656 35.4375c.746094 3.738282 4.027344 6.429688 7.839844 6.433594h80c3.273438 0 6.21875-1.992188 7.433594-5.03125l32-80c1.179687-2.945312.507812-6.308594-1.710938-8.578125-2.21875-2.265625-5.570312-3.007813-8.539062-1.886719zm-34.597656 79.496094h-68l-6.714844-33.601562c-.5625-2.8125-2.589844-5.105469-5.3125-6.015626l-40.40625-13.480468 9.960937-29.871094 23.085938 17.367188c.507812.382812 1.0625.703124 1.648437.953124l56 24c1.898438.808594 4.035156.859376 5.96875.144532l47.023438-17.648438zm0 0"/><path d="m444.230469 241.207031c-2.746094-1.707031-6.25-1.59375-8.878907.289063l-56 40c-.789062.558594-1.46875 1.257812-2.007812 2.0625l-31.558594 47.34375-15.441406 15.441406c-1.609375 1.609375-2.457031 3.828125-2.332031 6.097656.125 2.273438 1.210937 4.382813 2.988281 5.804688l40 32c3.371094 2.695312 8.265625 2.230468 11.070312-1.046875l48-56c.816407-.9375 1.394532-2.058594 1.691407-3.261719.078125-.320312 8.167969-32.859375 16.125-80.625.535156-3.191406-.910157-6.390625-3.65625-8.105469zm-27.550781 83.039063-41.71875 48.675781-26.984376-21.601563 9.679688-9.679687c.371094-.371094.707031-.78125 1-1.214844l31.199219-46.785156 38.945312-27.792969c-5.601562 30.671875-10.632812 52.222656-12.121093 58.398438zm0 0"/><path d="m384 232c2.320312 0 4.527344-1.007812 6.046875-2.757812 1.519531-1.753907 2.203125-4.082032 1.875-6.378907l-8-56c-.25-1.710937-1.042969-3.296875-2.265625-4.519531l-40-40c-2.433594-2.433594-6.152344-3.042969-9.230469-1.503906l-32 16c-1.996093.996094-3.484375 2.78125-4.109375 4.921875-.621094 2.144531-.320312 4.445312.828125 6.359375l24 40c.5625.941406 1.3125 1.761718 2.207031 2.398437l56 40c1.355469.96875 2.980469 1.488281 4.648438 1.480469zm-50-53.535156-18.695312-31.199219 19.121093-9.554687 34.039063 34.042968 4.976562 34.847656zm0 0"/><path d="m240 0c-132.546875 0-240 107.453125-240 240s107.453125 240 240 240 240-107.453125 240-240c-.148438-132.484375-107.515625-239.851562-240-240zm77.601562 29.871094-4 5.328125c-1.574218 2.101562-2.015624 4.839843-1.1875 7.328125l4.480469 13.472656h-90.398437l-45.695313-32c45.089844-12.398438 92.9375-10.34375 136.800781 5.871094zm-264.34375 86.609375 26.742188 16.046875v38.527344l-27.574219 13.785156c-3.289062 1.640625-5.039062 5.308594-4.242187 8.894531l14.785156 66.488281-42.046875 26.441406c-12.542969-58.769531-.886719-120.109374 32.335937-170.183593zm58.644532 307.121093 14.992187-6.402343 28.304688 21.199219c1.386719 1.039062 3.070312 1.601562 4.800781 1.601562h117.929688l26.246093 14.585938c-65.457031 19.632812-136.296875 8.214843-192.273437-30.984376zm212.410156 23.871094-40.433594-22.464844c-1.183594-.664062-2.519531-1.007812-3.878906-1.007812h-117.335938l-29.863281-22.398438c-2.289062-1.71875-5.324219-2.082031-7.953125-.953124l-27.601562 11.832031c-34.421875-28.507813-59.554688-66.644531-72.175782-109.519531l51.203126-32.183594c2.867187-1.800782 4.292968-5.207032 3.558593-8.511719l-14.648437-65.90625 26.402344-13.199219c2.707031-1.359375 4.417968-4.128906 4.414062-7.160156v-48c0-2.808594-1.472656-5.410156-3.878906-6.855469l-29.503906-17.703125c25.5625-33.175781 59.875-58.554687 99.078124-73.289062l57.71875 40.398437c1.34375.941407 2.945313 1.449219 4.585938 1.449219h104c2.570312 0 4.984375-1.238281 6.484375-3.324219 1.503906-2.085937 1.910156-4.765625 1.101563-7.203125l-6.675782-20 3.921875-5.226562c81.417969 37.046875 132.972657 119 131.121094 208.429687-1.855469 89.429688-56.757813 169.175781-139.640625 202.820313zm0 0"/></svg>