<svg height="480pt" viewBox="0 0 480.09831 480" width="480pt" xmlns="http://www.w3.org/2000/svg"><path d="m432.097656 239.949219c.035156 77.839843-46.945312 147.996093-118.9375 177.597656-71.988281 29.601563-154.730468 12.792969-209.460937-42.554687-36.953125-37.28125-57.019531-88.070313-55.523438-140.539063 1.496094-52.46875 24.425781-102.03125 63.441407-137.140625 35.296874-31.703125 81.039062-49.277344 128.480468-49.363281 106.027344.027343 191.972656 85.972656 192 192zm0 0" fill="#2f3c4f"/><path d="m472.097656 439.949219h-1.472656c-2.40625-6.78125-7.742188-12.117188-14.527344-14.527344v-17.472656c0-4.417969-3.582031-8-8-8-4.417968 0-8 3.582031-8 8v17.472656c-6.78125 2.410156-12.121094 7.746094-14.527344 14.527344h-9.472656c-4.417968 0-8 3.582031-8 8s3.582032 8 8 8h9.472656c2.40625 6.785156 7.746094 12.121093 14.527344 14.53125v1.46875c0 4.417969 3.582032 8 8 8 4.417969 0 8-3.582031 8-8v-1.46875c6.785156-2.410157 12.121094-7.746094 14.527344-14.53125h1.472656c4.417969 0 8-3.582031 8-8s-3.582031-8-8-8zm0 0" fill="#506f86"/><path d="m32.097656 39.949219c3.234375 0 6.152344-1.949219 7.390625-4.9375s.554688-6.429688-1.734375-8.71875l-6.34375-6.34375 6.34375-6.34375c3.03125-3.136719 2.988282-8.128907-.097656-11.214844s-8.074219-3.128906-11.214844-.097656l-6.34375 6.347656-6.34375-6.347656c-3.136718-3.03125-8.128906-2.988281-11.214844.097656-3.085937 3.085937-3.128906 8.078125-.097656 11.214844l6.34375 6.34375-6.34375 6.34375c-2.078125 2.011719-2.914062 4.984375-2.179687 7.78125.730469 2.796875 2.914062 4.980469 5.710937 5.714843 2.796875.730469 5.773438-.101562 7.78125-2.183593l6.34375-6.34375 6.34375 6.34375c1.5 1.5 3.535156 2.34375 5.65625 2.34375zm64-8c0-4.417969-3.582031-8-8-8-4.417968 0-8 3.582031-8 8-4.417968 0-8 3.582031-8 8s3.582032 8 8 8c0 4.417969 3.582032 8 8 8 4.417969 0 8-3.582031 8-8 4.417969 0 8-3.582031 8-8s-3.582031-8-8-8zm-40 56v-8c0-4.417969-3.582031-8-8-8-4.417968 0-8 3.582031-8 8v8h-8c-4.417968 0-8 3.582031-8 8s3.582032 8 8 8h8v8c0 4.417969 3.582032 8 8 8 4.417969 0 8-3.582031 8-8v-8c4.417969 0 8-3.582031 8-8s-3.582031-8-8-8zm0 0" fill="#506f86"/><g fill="#fbb040"><path d="m280.097656 119.992188c0 13.253906-10.746094 24-24 24s-24-10.746094-24-24c0-13.257813 10.746094-24 24-24s24 10.742187 24 24zm0 0"/><path d="m360.097656 207.992188c0 17.671874-14.328125 32-32 32s-32-14.328126-32-32c0-17.675782 14.328125-32 32-32s32 14.324218 32 32zm0 0"/><path d="m168.097656 207.992188c0 17.671874-14.328125 32-32 32s-32-14.328126-32-32c0-17.675782 14.328125-32 32-32s32 14.324218 32 32zm0 0"/><path d="m240.097656 287.992188c0 13.253906-10.746094 24-24 24s-24-10.746094-24-24c0-13.257813 10.746094-24 24-24s24 10.742187 24 24zm0 0"/><path d="m352.097656 335.992188c0 13.253906-10.746094 24-24 24s-24-10.746094-24-24c0-13.257813 10.746094-24 24-24s24 10.742187 24 24zm0 0"/><path d="m432.097656 239.992188c.046875 26.40625-5.402344 52.53125-16 76.71875-17.4375-7.53125-27.171875-26.292969-23.292968-44.886719 3.875-18.59375 20.296874-31.898438 39.292968-31.832031zm0 0"/><path d="m128.097656 343.949219c.007813 14.738281-10.078125 27.566406-24.398437 31.042969-13.980469-14.097657-25.667969-30.292969-34.640625-48v-.082032c7.609375-12.023437 22.242187-17.578125 35.914062-13.632812 13.671875 3.945312 23.09375 16.445312 23.125 30.671875zm0 0"/><path d="m157.21875 66.832031c1.894531 4.113281 2.875 8.589844 2.878906 13.117188-.019531 12.855469-7.730468 24.453125-19.578125 29.441406-11.847656 4.992187-25.53125 2.40625-34.742187-6.558594 1.921875-1.921875 3.839844-3.761719 5.839844-5.519531 11.660156-10.527344 24.585937-19.558594 38.480468-26.882812 2.320313-1.277344 4.71875-2.480469 7.121094-3.597657zm0 0"/><path d="m280.097656 427.789062c-26.214844 5.546876-53.304687 5.546876-79.519531 0 2.230469-20.273437 19.363281-35.621093 39.761719-35.621093 20.398437 0 37.527344 15.347656 39.757812 35.621093zm0 0"/></g></svg>