<svg height="480pt" viewBox="0 0 480 480.39443" width="480pt" xmlns="http://www.w3.org/2000/svg"><path d="m300.191406 320.414062c-3.242187 1.339844-6.910156 1.175782-10.023437-.4375-5.84375-4.445312-9.96875-10.773437-11.679688-17.914062-.867187-3.425781-3.882812-5.878906-7.417969-6.03125-3.574218-.257812-6.855468 1.980469-7.917968 5.402344-3.621094 10.582031-13.289063 17.921875-24.457032 18.566406-25.601562 0-32.496093-10.992188-32.929687-11.734375-1.542969-2.460937-4.253906-3.941406-7.160156-3.910156-2.902344.035156-5.582031 1.574219-7.070313 4.070312-13.273437 26.542969-6.808594 65.039063 7.785156 77.925781 5.277344 5.328126 13.597657 6.140626 19.808594 1.9375 10.566406-7.03125 24.238282-4 38.734375-.800781 8.34375 2.183594 16.902344 3.457031 25.519531 3.800781 4.695313.054688 9.371094-.652343 13.839844-2.097656 20.914063-6.96875 35.578125-40.550781 29.746094-58.046875-2.824219-8.535156-11.359375-15.832031-26.777344-10.730469zm-8 53.601563c-10.292968 1.886719-20.890625 1.148437-30.824218-2.144531-8.632813-2.246094-17.484376-3.550782-26.398438-3.886719-8.566406-.246094-16.992188 2.195313-24.097656 6.984375-.582032-.191406-3.304688-2.25-6.039063-8.800781-4.878906-12.640625-5.882812-26.449219-2.878906-39.664063 11.015625 6.828125 23.851563 10.144532 36.796875 9.503906 12.011719.132813 23.417969-5.25 30.953125-14.601562 3.125 5.203125 7.515625 9.535156 12.761719 12.585938 7.027344 3.761718 15.328125 4.34375 22.816406 1.601562 5.734375-1.921875 6.222656-.371094 6.566406.644531 3 9.058594-6.894531 33.554688-19.65625 37.808594zm0 0"/><path d="m475.382812 195.792969c-13.011718-57.6875-50.953124-106.625-103.574218-133.601563-4.421875-2.28125-8.957032-4.402344-13.601563-6.359375-60.480469-25.578125-129.664062-19.835937-185.097656 15.363281-55.4375 35.195313-90.066406 95.363282-92.644531 160.980469v.382813c-.074219 2.457031-.152344 4.914062-.152344 7.441406.03125 76.769531 44.003906 146.742188 113.15625 180.078125 69.152344 33.332031 151.285156 24.144531 211.359375-23.652344 60.074219-47.792969 87.492187-125.757812 70.554687-200.632812zm-298.847656-17.847657 5.953125 23.808594c-16.773437 5.785156-30.332031 18.375-37.351562 34.671875-1.476563 2.933594-4.300781 4.953125-7.554688 5.40625-10.328125 2.304688-26.664062-3.039062-40.847656-13.144531.089844-1.398438.183594-2.792969.296875-4.191406.152344-1.769532.289062-3.535156.488281-5.289063.230469-2.101562.535157-4.183593.800781-6.261719.246094-1.714843.488282-3.433593.800782-5.128906.367187-2.105468.796875-4.183594 1.253906-6.273437.34375-1.597657.664062-3.285157 1.054688-4.910157.503906-2.121093 1.097656-4.207031 1.683593-6.304687.429688-1.550781.796875-3.121094 1.300781-4.65625.664063-2.175781 1.425782-4.3125 2.167969-6.457031.488281-1.40625.9375-2.832032 1.464844-4.230469.871094-2.328125 1.847656-4.609375 2.816406-6.894531.488281-1.167969.9375-2.355469 1.457031-3.515625 1.230469-2.757813 2.574219-5.460938 3.941407-8.148438.328125-.648437.617187-1.3125.953125-1.960937 3.507812-6.679688 7.425781-13.132813 11.730468-19.328125.527344-.761719 1.109376-1.496094 1.652344-2.257813 1.648438-2.285156 3.304688-4.566406 5.058594-6.78125.800781-.960937 1.597656-1.882812 2.398438-2.824218 1.601562-1.953126 3.199218-3.914063 4.921874-5.800782.917969-1.023437 1.894532-2.007812 2.839844-3.007812 1.597656-1.746094 3.261719-3.488282 4.976563-5.167969 1.054687-1.039063 2.160156-2.039063 3.246093-3.058594 1.679688-1.597656 3.351563-3.148437 5.097657-4.664062 1.183593-1.023438 2.398437-2.007813 3.613281-3.007813 1.730469-1.421875 3.457031-2.847656 5.25-4.222656 1.289062-.984375 2.625-1.9375 3.945312-2.894531 1.78125-1.289063 3.566407-2.578125 5.398438-3.808594 1.414062-.953125 2.863281-1.863281 4.3125-2.785156 1.160156-.734375 2.34375-1.457031 3.527344-2.167969 16.960937 9.601562 23.128906 17.199219 23.128906 21.3125 0 7.449219-6.519531 15.199219-13.417969 23.40625-10.65625 12.648438-23.894531 28.394531-18.359375 50.539062zm103.761719 246.054688c-98.65625-.125-179.699219-77.957031-183.808594-176.527344 10.894531 6.59375 23.277344 10.332032 36 10.871094 2.886719.019531 5.769531-.28125 8.589844-.894531 7.953125-1.515625 14.75-6.640625 18.402344-13.863281 13.359375-26.746094 32.152343-27.5625 32.839843-27.585938 2.460938 0 4.785157-1.136719 6.300782-3.074219 1.515625-1.941406 2.054687-4.472656 1.457031-6.863281l-8-32c-3.550781-14.214844 5.074219-24.46875 15.074219-36.359375 8.414062-10.039063 17.144531-20.421875 17.144531-33.703125 0-10.128906-7.625-20.046875-22.9375-30.113281 43.792969-20.917969 94.101563-23.601563 139.871094-7.460938-18.726563 22.335938-17.246094 38.839844-12.09375 49.160157 8.164062 13.835937 19.503906 25.53125 33.078125 34.125 16.382812 12.160156 25.496094 19.65625 22.320312 32.378906-2.398437 9.597656-10.976562 13.183594-24.800781 17.964844-15.613281 5.402343-37 12.800781-31.246094 41.546874 6.839844 34.222657 17.808594 55.703126 33.519531 65.644532 9.625 6.023437 21.351563 7.671875 32.265626 4.546875 20.886718-5.257813 34.109374 23.726562 37.550781 32.351562-34.160157 50.082031-90.90625 79.988281-151.527344 79.855469zm183.550781-171.535156c-.089844 1.34375-.257812 2.679687-.375 4-.25 2.78125-.527344 5.597656-.90625 8.335937-.207031 1.597657-.480468 3.121094-.734375 4.679688-.410156 2.535156-.855469 5.0625-1.375 7.574219-.328125 1.601562-.691406 3.203124-1.066406 4.800781-.574219 2.464843-1.203125 4.914062-1.886719 7.351562-.433594 1.601563-.871094 3.121094-1.34375 4.664063-.800781 2.503906-1.601562 4.992187-2.496094 7.464844-.503906 1.417968-.984374 2.839843-1.519531 4.25-1.082031 2.804687-2.265625 5.597656-3.480469 8.324218-.449218 1.019532-.847656 2.058594-1.3125 3.066406-1.695312 3.652344-3.515624 7.257813-5.457031 10.816407-7.199219-13.714844-21.03125-32.761719-42.207031-32.761719-3.148438.015625-6.285156.410156-9.335938 1.183594-6.660156 2.042968-13.875 1.132812-19.816406-2.503906-11.488281-7.269532-20.617187-26.398438-26.398437-55.269532-2.769531-13.882812 2.808593-17.058594 20.796875-23.273437 13.601562-4.695313 30.449218-10.527344 35.121094-29.214844 5.921874-23.695313-12.253907-37.191406-28.304688-49.105469-11.480469-7.171875-21.148438-16.902344-28.253906-28.421875-5.542969-11.089843 3.414062-24.839843 13.40625-35.578125 1.320312.609375 2.640625 1.207032 3.9375 1.839844 1.96875.960938 3.9375 1.921875 5.855468 2.945312 2.070313 1.09375 4.097657 2.253907 6.113282 3.421876 1.863281 1.082031 3.726562 2.167968 5.542968 3.304687 1.96875 1.242187 3.886719 2.542969 5.800782 3.847656 1.765625 1.199219 3.535156 2.402344 5.246094 3.65625 1.863281 1.367188 3.664062 2.800781 5.464843 4.234375 1.664063 1.316406 3.335938 2.628906 4.945313 4 1.75 1.496094 3.429687 3.054688 5.125 4.605469 1.546875 1.425781 3.105468 2.832031 4.601562 4.304687 1.601563 1.601563 3.199219 3.296876 4.800782 4.976563 1.429687 1.511719 2.878906 3.015625 4.253906 4.574219 1.515625 1.730468 2.953125 3.519531 4.402344 5.304687 1.3125 1.601563 2.648437 3.199219 3.902343 4.855469 1.402344 1.832031 2.703125 3.730469 4 5.601562 1.183594 1.6875 2.402344 3.359376 3.527344 5.085938 1.265625 1.945312 2.402344 3.953125 3.632813 5.9375 1.058593 1.761719 2.144531 3.488281 3.136718 5.28125 1.144532 2.054688 2.175782 4.167969 3.238282 6.269531.914062 1.800781 1.867187 3.585938 2.722656 5.417969 1 2.160156 1.886718 4.367188 2.808594 6.566406.796874 1.855469 1.597656 3.679688 2.320312 5.601563.855469 2.261719 1.597656 4.574219 2.398438 6.871093.632812 1.878907 1.320312 3.738282 1.894531 5.601563.714843 2.398437 1.296875 4.800781 1.914062 7.253906.480469 1.871094 1.023438 3.714844 1.445313 5.601563.570312 2.574218.992187 5.199218 1.457031 7.808594.320313 1.78125.714844 3.542968.976563 5.34375.433593 2.910156.695312 5.878906.992187 8.800781.144531 1.527343.382813 3.039062.496094 4.574219.328125 4.511718.503906 9.054687.503906 13.601562-.0625 4.238281-.230469 8.390625-.511719 12.527344zm0 0"/><path d="m8.296875 40h16v8c0 4.417969 3.582031 8 8 8s8-3.582031 8-8v-8h24c4.417969 0 8-3.582031 8-8s-3.582031-8-8-8h-24v-16c0-4.417969-3.582031-8-8-8s-8 3.582031-8 8v16h-16c-4.417969 0-8 3.582031-8 8s3.582031 8 8 8zm0 0"/><path d="m44.574219 120.976562 5.664062-5.664062c3.03125-3.140625 2.988281-8.128906-.097656-11.214844-3.085937-3.085937-8.074219-3.128906-11.214844-.097656l-5.664062 5.664062-11.308594-11.320312c-3.140625-3.03125-8.128906-2.988281-11.214844.097656-3.085937 3.085938-3.128906 8.074219-.097656 11.214844l11.3125 11.320312-5.65625 5.65625c-2.082031 2.007813-2.914063 4.980469-2.183594 7.777344.734375 2.800782 2.917969 4.984375 5.714844 5.714844 2.796875.734375 5.769531-.101562 7.78125-2.179688l5.652344-5.65625 11.320312 11.3125c3.140625 3.03125 8.128907 2.988282 11.214844-.097656 3.085937-3.085937 3.128906-8.078125.097656-11.214844zm0 0"/><path d="m88.296875 80h8v8c0 4.417969 3.582031 8 8 8s8-3.582031 8-8v-8h8c4.417969 0 8-3.582031 8-8s-3.582031-8-8-8h-8v-8c0-4.417969-3.582031-8-8-8s-8 3.582031-8 8v8h-8c-4.417969 0-8 3.582031-8 8s3.582031 8 8 8zm0 0"/><path d="m35.609375 456 2.34375-2.34375c3.03125-3.140625 2.988281-8.128906-.097656-11.214844-3.085938-3.085937-8.078125-3.128906-11.214844-.097656l-2.34375 2.34375-10.34375-10.34375c-3.140625-3.03125-8.128906-2.988281-11.214844.097656-3.085937 3.085938-3.128906 8.074219-.097656 11.214844l10.34375 10.34375-10.34375 10.34375c-2.082031 2.007812-2.914063 4.984375-2.183594 7.78125.734375 2.796875 2.917969 4.980469 5.714844 5.710938 2.796875.734374 5.769531-.101563 7.78125-2.179688l10.34375-10.34375 10.34375 10.34375c2.007813 2.078125 4.980469 2.914062 7.777344 2.179688 2.796875-.730469 4.984375-2.914063 5.714843-5.710938.730469-2.796875-.101562-5.773438-2.179687-7.78125zm0 0"/><path d="m104.296875 408h-8v-8c0-4.417969-3.582031-8-8-8s-8 3.582031-8 8v8h-8c-4.417969 0-8 3.582031-8 8s3.582031 8 8 8h8v8c0 4.417969 3.582031 8 8 8s8-3.582031 8-8v-8h8c4.417969 0 8-3.582031 8-8s-3.582031-8-8-8zm0 0"/><path d="m472.296875 240.113281c0 106.039063-85.960937 192-192 192s-192-85.960937-192-192c0-2.5625.078125-5.042969.160156-7.519531 2.558594-66.113281 39.03125-126.226562 96.476563-159.042969 51.992187-29.855469 114.964844-33.644531 170.160156-10.238281 71.039062 30.035156 117.203125 99.671875 117.203125 176.800781zm0 0" fill="#2f3c4f"/><g fill="#fbb040"><path d="m198.695312 312.792969s8 16 40 16c24 0 32-24 32-24s8 32 32 24c31.289063-10.402344 16 45.597656-8 53.597656s-56-16-80 0c-14.855468 9.960937-32-37.597656-16-69.597656zm0 0"/><path d="m184.296875 174.671875 8 32s-24 0-40 32c-8.960937 17.921875-40.640625 10.71875-63.839844-7.519531 2.558594-66.109375 39.03125-126.226563 96.476563-159.039063 16.320312 8.640625 31.363281 19.597657 31.363281 30.558594 0 24-40 40-32 72zm0 0"/><path d="m472.296875 240.113281c.046875 36.910157-10.625 73.039063-30.722656 104h-1.277344s-16-48-48-40-48-24-56-64 48-24 56-56-40-40-56-72c-8.160156-16.320312 4.480469-34.722656 18.796875-48.800781 71.039062 30.035156 117.203125 99.671875 117.203125 176.800781zm0 0"/></g><path d="m300.191406 320.566406c-3.246094 1.332032-6.914062 1.167969-10.023437-.453125-5.84375-4.445312-9.972657-10.773437-11.679688-17.914062-.867187-3.429688-3.882812-5.882813-7.417969-6.03125-3.578124-.277344-6.867187 1.96875-7.917968 5.398437-3.617188 10.59375-13.285156 17.941406-24.457032 18.585938-25.601562 0-32.496093-10.992188-32.929687-11.738282-1.542969-2.457031-4.253906-3.9375-7.160156-3.90625-2.902344.035157-5.582031 1.574219-7.070313 4.066407-13.273437 26.546875-6.808594 65.042969 7.785156 77.929687 5.277344 5.324219 13.597657 6.140625 19.808594 1.945313 10.566406-7.042969 24.238282-4 38.734375-.800781 8.34375 2.183593 16.902344 3.457031 25.519531 3.800781 4.695313.054687 9.371094-.652344 13.839844-2.097657 20.914063-6.96875 35.578125-40.550781 29.746094-58.046874-2.824219-8.542969-11.359375-15.863282-26.777344-10.738282zm-8 53.601563c-10.292968 1.890625-20.894531 1.152343-30.824218-2.144531-8.632813-2.246094-17.484376-3.550782-26.398438-3.886719-8.566406-.246094-16.992188 2.195312-24.097656 6.984375-.582032-.191406-3.304688-2.25-6.039063-8.839844-4.878906-12.644531-5.882812-26.453125-2.878906-39.664062 11.015625 6.828124 23.851563 10.140624 36.796875 9.503906 12.011719.128906 23.417969-5.25 30.953125-14.601563 3.125 5.203125 7.515625 9.53125 12.761719 12.585938 7.027344 3.761719 15.328125 4.34375 22.816406 1.597656 5.734375-1.917969 6.222656-.367187 6.566406.648437 3 9.097657-6.894531 33.59375-19.65625 37.847657zm0 0"/><path d="m475.382812 195.945312c-13.011718-57.6875-50.953124-106.625-103.574218-133.601562-4.421875-2.273438-8.957032-4.390625-13.601563-6.359375-60.480469-25.578125-129.664062-19.835937-185.097656 15.363281-55.4375 35.195313-90.066406 95.363282-92.644531 160.980469v.390625c-.082032 2.449219-.152344 4.90625-.152344 7.433594.058594 76.75 44.035156 146.699218 113.175781 180.015625 69.140625 33.320312 151.253907 24.132812 211.320313-23.644531 60.066406-47.777344 87.496094-125.714844 70.589844-200.578126zm-298.847656-17.847656 5.953125 23.804688c-16.773437 5.789062-30.332031 18.375-37.351562 34.671875-1.476563 2.9375-4.300781 4.957031-7.554688 5.410156-10.292969 2.304687-26.65625-3.039063-40.847656-13.144531.089844-1.398438.183594-2.792969.296875-4.183594.152344-1.769531.289062-3.542969.488281-5.296875.230469-2.09375.535157-4.175781.800781-6.253906.246094-1.714844.488282-3.441407.800782-5.144531.367187-2.097657.796875-4.167969 1.246094-6.25.351562-1.648438.671874-3.304688 1.0625-4.933594.503906-2.105469 1.097656-4.183594 1.675781-6.265625.429687-1.601563.839843-3.144531 1.308593-4.695313.664063-2.160156 1.410157-4.273437 2.152344-6.402344.496094-1.429687.953125-2.871093 1.480469-4.285156.863281-2.296875 1.824219-4.554687 2.777344-6.808594.511719-1.191406.96875-2.398437 1.503906-3.601562 1.199219-2.6875 2.503906-5.320312 3.832031-7.933594.367188-.722656.6875-1.464844 1.0625-2.183594 3.507813-6.667968 7.425782-13.109374 11.738282-19.289062.558593-.800781 1.175781-1.601562 1.75-2.402344 1.601562-2.246094 3.242187-4.484375 4.96875-6.664062.800781-.972656 1.601562-1.910156 2.398437-2.871094 1.601563-1.933594 3.203125-3.878906 4.882813-5.75.925781-1.039062 1.917968-2.039062 2.878906-3.058594 1.601562-1.726562 3.246094-3.460937 4.9375-5.125 1.0625-1.050781 2.175781-2.042968 3.253906-3.066406 1.679688-1.597656 3.359375-3.144531 5.105469-4.664062 1.175781-1.023438 2.398437-2 3.589843-2.992188 1.738282-1.429688 3.472657-2.863281 5.265626-4.230469 1.289062-.992187 2.625-1.945312 3.941406-2.894531 1.785156-1.296875 3.570312-2.578125 5.402344-3.816406 1.414062-.953125 2.863281-1.867188 4.3125-2.777344 1.160156-.734375 2.34375-1.457031 3.527343-2.167969 16.960938 9.601563 23.128907 17.199219 23.128907 21.3125 0 7.457031-6.519532 15.199219-13.417969 23.40625-10.648438 12.65625-23.886719 28.402344-18.351563 50.546875zm103.761719 246.054688c-98.65625-.125-179.699219-77.957032-183.808594-176.527344 10.894531 6.59375 23.277344 10.332031 36 10.871094 2.886719.019531 5.769531-.28125 8.589844-.894532 7.953125-1.519531 14.75-6.640624 18.402344-13.867187 13.359375-26.742187 32.152343-27.558594 32.839843-27.582031 2.460938 0 4.785157-1.136719 6.300782-3.078125 1.515625-1.9375 2.054687-4.46875 1.457031-6.859375l-8-32c-3.550781-14.214844 5.074219-24.472656 15.074219-36.359375 8.414062-10.039063 17.144531-20.414063 17.144531-33.703125 0-10.121094-7.625-20.046875-22.9375-30.121094 43.796875-20.910156 94.101563-23.589844 139.871094-7.457031-18.734375 22.328125-17.246094 38.839843-12.09375 49.160156 8.167969 13.828125 19.507812 25.519531 33.078125 34.105469 16.382812 12.160156 25.496094 19.65625 22.320312 32.375-2.398437 9.601562-10.976562 13.183594-24.800781 17.96875-15.613281 5.402344-37 12.800781-31.246094 41.542968 6.839844 34.226563 17.808594 55.707032 33.519531 65.648438 9.621094 6.027344 21.351563 7.675781 32.265626 4.546875 20.886718-5.242187 34.109374 23.726563 37.550781 32.351563-34.152344 50.089843-90.902344 80.003906-151.527344 79.878906zm183.550781-171.535156c-.089844 1.34375-.257812 2.679687-.375 4-.25 2.78125-.527344 5.597656-.90625 8.335937-.207031 1.597656-.480468 3.117187-.734375 4.679687-.410156 2.535157-.855469 5.0625-1.375 7.574219-.328125 1.601563-.691406 3.199219-1.066406 4.800781-.574219 2.464844-1.203125 4.914063-1.886719 7.351563-.433594 1.601563-.871094 3.121094-1.34375 4.664063-.800781 2.511718-1.601562 4.992187-2.496094 7.464843-.503906 1.414063-.984374 2.839844-1.519531 4.246094-1.082031 2.808594-2.265625 5.601563-3.480469 8.328125-.449218 1.015625-.847656 2.058594-1.3125 3.066406-1.695312 3.652344-3.515624 7.257813-5.457031 10.816406-7.199219-13.714843-21.03125-32.761718-42.207031-32.761718-3.148438.015625-6.285156.410156-9.335938 1.183594-6.664062 2.039062-13.882812 1.117187-19.816406-2.535157-11.488281-7.273437-20.617187-26.398437-26.398437-55.273437-2.769531-13.878906 2.808593-17.054688 20.796875-23.269532 13.601562-4.695312 30.449218-10.527343 35.121094-29.21875 5.921874-23.695312-12.253907-37.191406-28.304688-49.101562-11.476562-7.164062-21.144531-16.882812-28.253906-28.394531-5.542969-11.085938 3.40625-24.839844 13.40625-35.574219 1.320312.609375 2.640625 1.207031 3.9375 1.839844 1.96875.960937 3.9375 1.921875 5.855468 2.945312 2.070313 1.09375 4.097657 2.253906 6.113282 3.421875 1.863281 1.082031 3.726562 2.167969 5.542968 3.304688 1.96875 1.242187 3.886719 2.542969 5.800782 3.847656 1.765625 1.199219 3.535156 2.402344 5.246094 3.664063 1.863281 1.359374 3.664062 2.792968 5.464843 4.222656 1.664063 1.320312 3.335938 2.632812 4.945313 4 1.75 1.488281 3.429687 3.050781 5.125 4.601562 1.546875 1.425782 3.105468 2.832032 4.601562 4.304688 1.601563 1.601562 3.199219 3.296875 4.800782 4.976562 1.429687 1.511719 2.878906 3.015625 4.253906 4.574219 1.515625 1.730469 2.953125 3.519531 4.402344 5.304687 1.3125 1.601563 2.648437 3.199219 3.902343 4.855469 1.402344 1.832031 2.703125 3.738281 4 5.601563 1.183594 1.6875 2.402344 3.359375 3.527344 5.085937 1.265625 1.945313 2.402344 3.953125 3.632813 5.945313 1.058593 1.75 2.144531 3.480468 3.136718 5.273437 1.144532 2.054688 2.175782 4.167969 3.238282 6.269531.914062 1.800782 1.867187 3.585938 2.722656 5.417969 1 2.160157 1.886718 4.367188 2.808594 6.566407.796874 1.855468 1.597656 3.679687 2.320312 5.601562.855469 2.261719 1.597656 4.574219 2.398438 6.871094.632812 1.878906 1.320312 3.734375 1.894531 5.601562.714843 2.398438 1.296875 4.796875 1.914062 7.253906.480469 1.871094 1.023438 3.710938 1.445313 5.601563.570312 2.574219.992187 5.199219 1.457031 7.808594.320313 1.78125.714844 3.542969.976563 5.34375.433593 2.917969.695312 5.878906.992187 8.796875.144531 1.53125.382813 3.042968.496094 4.578125.328125 4.511719.503906 9.054687.503906 13.597656-.0625 4.25-.230469 8.402344-.511719 12.539063zm0 0"/><path d="m8.296875 40.152344h16v8c0 4.417968 3.582031 8 8 8s8-3.582032 8-8v-8h24c4.417969 0 8-3.582032 8-8 0-4.417969-3.582031-8-8-8h-24v-16c0-4.417969-3.582031-8-8-8s-8 3.582031-8 8v16h-16c-4.417969 0-8 3.582031-8 8 0 4.417968 3.582031 8 8 8zm0 0"/><path d="m44.574219 121.128906 5.664062-5.664062c2.082031-2.007813 2.914063-4.984375 2.183594-7.78125-.734375-2.796875-2.917969-4.980469-5.714844-5.714844-2.796875-.730469-5.769531.105469-7.78125 2.183594l-5.664062 5.664062-11.308594-11.304687c-2.011719-2.078125-4.984375-2.914063-7.78125-2.179688-2.796875.730469-4.980469 2.914063-5.714844 5.710938-.730469 2.796875.101563 5.773437 2.183594 7.78125l11.3125 11.320312-5.65625 5.640625c-2.082031 2.007813-2.914063 4.980469-2.183594 7.777344.734375 2.796875 2.917969 4.984375 5.714844 5.714844 2.796875.730468 5.769531-.101563 7.78125-2.179688l5.652344-5.65625 11.320312 11.3125c3.140625 3.03125 8.128907 2.988282 11.214844-.097656s3.128906-8.078125.097656-11.214844zm0 0"/><path d="m88.296875 80.152344h8v8c0 4.417968 3.582031 8 8 8s8-3.582032 8-8v-8h8c4.417969 0 8-3.582032 8-8 0-4.417969-3.582031-8-8-8h-8v-8c0-4.417969-3.582031-8-8-8s-8 3.582031-8 8v8h-8c-4.417969 0-8 3.582031-8 8 0 4.417968 3.582031 8 8 8zm0 0"/><path d="m35.609375 456.152344 2.34375-2.34375c2.902344-3.160156 2.796875-8.042969-.238281-11.074219s-7.921875-3.128906-11.074219-.222656l-2.34375 2.328125-10.34375-10.328125c-3.140625-3.03125-8.128906-2.988281-11.214844.097656-3.085937 3.085937-3.128906 8.074219-.097656 11.214844l10.34375 10.34375-10.34375 10.34375c-2.082031 2.007812-2.914063 4.984375-2.183594 7.78125.734375 2.796875 2.917969 4.980469 5.714844 5.710937 2.796875.734375 5.769531-.101562 7.78125-2.179687l10.34375-10.359375 10.34375 10.34375c1.988281 2.160156 5 3.0625 7.847656 2.34375 2.847657-.71875 5.070313-2.941406 5.796875-5.789063.722656-2.847656-.175781-5.859375-2.332031-7.851562zm0 0"/><path d="m104.296875 408.152344h-8v-8c0-4.417969-3.582031-8-8-8s-8 3.582031-8 8v8h-8c-4.417969 0-8 3.582031-8 8 0 4.417968 3.582031 8 8 8h8v8c0 4.417968 3.582031 8 8 8s8-3.582032 8-8v-8h8c4.417969 0 8-3.582032 8-8 0-4.417969-3.582031-8-8-8zm0 0"/></svg>