<svg height="512pt" viewBox="0 0 512.00003 512" width="512pt" xmlns="http://www.w3.org/2000/svg"><path d="m46.128906 375.5 25.773438-11.453125c6.527344-2.902344 13.753906-1.796875 18.363281 2.816406l54.871094 54.871094c4.613281 4.609375 5.71875 11.835937 2.816406 18.363281l-11.453125 25.773438zm0 0" fill="#3e4b5a"/><path d="m106.671875 383.269531-16.40625-16.40625c-4.609375-4.613281-11.835937-5.71875-18.363281-2.816406l-25.773438 11.453125 20.414063 20.417969 24.15625-13.074219c6.121093-3.3125 12.402343-3.144531 15.972656.425781zm0 0" fill="#374451"/><path d="m142.125 467.925781-95.230469-95.234375c-5.742187-5.738281-15.308593-5.5625-21.261719.386719l-2.453124 2.457031c-5.953126 5.953125-6.125 15.519532-.386719 21.257813l95.234375 95.234375c5.738281 5.738281 15.304687 5.566406 21.257812-.386719l2.457032-2.453125c5.949218-5.953125 6.125-15.519531.382812-21.261719zm0 0" fill="#576574"/><path d="m133.660156 476.394531-95.234375-95.234375c-3.523437-3.523437-5.125-8.167968-4.703125-12.375-2.949218.566406-5.789062 1.996094-8.089844 4.292969l-2.453124 2.457031c-5.953126 5.949219-6.128907 15.515625-.386719 21.257813l95.234375 95.234375c5.738281 5.738281 15.304687 5.566406 21.257812-.386719l2.453125-2.457031c2.300781-2.296875 3.726563-5.136719 4.296875-8.085938-4.207031.421875-8.851562-1.179687-12.375-4.703125zm0 0" fill="#3e4b5a"/><path d="m248.792969 456.277344-28.507813-121.742188-82.910156 82.910156 81.289062 81.289063 25.347657-25.347656c4.433593-4.4375 6.238281-10.886719 4.78125-17.109375zm0 0" fill="#ff6b6b"/><path d="m230.472656 378.023438-10.1875-43.488282-82.910156 82.910156 26.835938 26.839844zm0 0" fill="#ee5253"/><path d="m38.613281 267.988281-25.347656 25.347657 82.652344 82.652343 82.910156-82.910156-123.003906-29.769531c-6.285157-1.519532-12.773438.246094-17.210938 4.679687zm0 0" fill="#ff6b6b"/><path d="m86.484375 283.617188c4.15625-4.15625 8.890625-7.421876 13.6875-9.574219l-44.347656-10.734375c-6.285157-1.519532-12.777344.242187-17.210938 4.679687l-25.347656 25.347657 31.75 31.75zm0 0" fill="#ee5253"/><path d="m207.625 509.769531c-2.972656-2.972656-2.972656-7.789062 0-10.765625l88.566406-88.566406c2.972656-2.96875 7.792969-2.96875 10.765625 0 2.972657 2.976562 2.972657 7.792969 0 10.769531l-88.566406 88.5625c-2.972656 2.972657-7.789063 2.972657-10.765625 0zm0 0" fill="#feca57"/><path d="m2.230469 304.375c-2.972657-2.976562-2.972657-7.792969 0-10.769531l88.566406-88.5625c2.972656-2.972657 7.789063-2.972657 10.765625 0 2.972656 2.972656 2.972656 7.789062 0 10.765625l-88.566406 88.566406c-2.976563 2.96875-7.792969 2.96875-10.765625 0zm0 0" fill="#feca57"/><path d="m284.421875 180.597656 46.980469 46.980469-191.945313 191.945313-46.980469-46.980469zm0 0" fill="#e4eaf8"/><path d="m92.472656 372.546875 191.945313-191.945313 25.871093 25.871094-191.945312 191.945313zm0 0" fill="#c7d2e5"/><path d="m104.929688 407.074219c-2.972657-2.976563-2.972657-7.792969 0-10.769531l88.566406-88.5625c2.96875-2.972657 7.789062-2.972657 10.761718 0 2.976563 2.972656 2.976563 7.789062 0 10.765624l-88.5625 88.566407c-2.976562 2.96875-7.792968 2.96875-10.765624 0zm0 0" fill="#feca57"/><path d="m371.953125 49.675781 90.367187 90.367188-85.5 85.503906-90.371093-90.371094zm0 0" fill="#e4eaf8"/><path d="m286.449219 135.179688 85.5-85.5 24.8125 24.8125-85.5 85.503906zm0 0" fill="#c7d2e5"/><path d="m393.148438 118.851562c-10.554688-10.554687-27.667969-10.554687-38.222657 0-10.554687 10.554688-10.554687 27.667969 0 38.222657 10.554688 10.554687 27.667969 10.554687 38.222657 0 10.554687-10.554688 10.554687-27.667969 0-38.222657zm0 0" fill="#54a0ff"/><path d="m389.4375 157.070312c-10.558594-10.554687-10.558594-27.667968 0-38.222656.597656-.597656 1.21875-1.15625 1.855469-1.6875-10.617188-8.828125-26.40625-8.269531-36.363281 1.6875-10.554688 10.554688-10.554688 27.667969 0 38.222656 9.957031 9.957032 25.746093 10.519532 36.363281 1.6875-.636719-.527343-1.257813-1.089843-1.855469-1.6875zm0 0" fill="#338def"/><path d="m286.449219 135.179688-10.109375 24.425781c-2.5625 6.1875-1.230469 13.191406 3.378906 17.804687l54.871094 54.871094c4.613281 4.609375 11.617187 5.9375 17.804687 3.378906l24.425781-10.109375zm0 0" fill="#c7d2e5"/><path d="m302.242188 183.1875 9.429687-22.785156-25.21875-25.222656-10.113281 24.425781c-2.558594 6.191406-1.230469 13.191406 3.382812 17.804687l23.226563 23.226563c-2.765625-5.257813-3.113281-11.640625-.707031-17.449219zm0 0" fill="#bac7db"/><path d="m461.480469 140.886719 18.019531-18.015625c24.851562-24.855469 46.3125-86.976563 21.457031-111.828125-24.851562-24.855469-86.972656-3.394531-111.828125 21.457031l-18.015625 18.019531zm0 0" fill="#ff6b6b"/><path d="m411.304688 60.109375c20.683593-20.683594 63.28125-39.371094 96.839843-38.25-1.738281-4.085937-4.105469-7.738281-7.1875-10.816406-24.851562-24.855469-86.972656-3.394531-111.828125 21.457031l-18.015625 18.019531 24.890625 24.890625zm0 0" fill="#ee5253"/></svg>